<svg xmlns="http://www.w3.org/2000/svg" viewBox="0 0 208.82 40.87"><defs><style>.cls-1{isolation:isolate;}.cls-2{fill:#202020;}</style></defs><title>Asset 4</title><g id="Layer_2" data-name="Layer 2"><g id="Layer_1-2" data-name="Layer 1"><g id="Group_116" data-name="Group 116"><g id="Nhân_Số_học" data-name="Nhân Số học" class="cls-1"><g class="cls-1"><path class="cls-2" d="M47.82,9.91l-1,.31a2.85,2.85,0,0,1,2.58-1.64h.91a2.86,2.86,0,0,1,.57.34,2.73,2.73,0,0,1,.69.57,1.37,1.37,0,0,0,.34.57,4.83,4.83,0,0,1,.45.65,3.91,3.91,0,0,0,.35.46,2,2,0,0,1,.26.38,2.85,2.85,0,0,0,.42.49,2.85,2.85,0,0,1,.42.49,9,9,0,0,0,.76,1.07,4.31,4.31,0,0,1,.22.38l.57.64.57.76c.08.16.16.23.23.23a.28.28,0,0,1,.19.08,6.06,6.06,0,0,0,1.07,1.14c.26.22.45.42.57.53a3.42,3.42,0,0,1,.3.57,3,3,0,0,0,.34.61.53.53,0,0,0,.38.3,1,1,0,0,0,.27.08,7.08,7.08,0,0,0,.57,1c.19.27.34.5.49.73a1.34,1.34,0,0,0,.34.38,3.76,3.76,0,0,1,.84,1.21,5.64,5.64,0,0,1,.76,1.56,4,4,0,0,0,.19.49l.23.57c0-1.14-.08-2.47-.08-4s0-3,0-4.33S62.56,14,62.48,13s-.19-1.45-.34-1.45-.42-.22-.65-.38a.8.8,0,0,1-.34-.72c0-.34.23-1,.69-1a.52.52,0,0,1,.41.23,3.28,3.28,0,0,0,.35.38,10.37,10.37,0,0,0,2.77-1.59l.46-.46A.64.64,0,0,1,66,7.78a1.24,1.24,0,0,0,.19-.22s.07-.12.11-.19a1,1,0,0,1,.11-.19.77.77,0,0,1,.19-.27,2,2,0,0,0,.23-.3l.31-.31s0-.07.07-.11.08-.08.08-.11h.15A.35.35,0,0,0,67.65,6a.39.39,0,0,1,.27-.15,4.51,4.51,0,0,0,.15-.5c.11-.49.26-.6.79-.6.08.11.19.26.31.45a3.22,3.22,0,0,1,.23.46,15.55,15.55,0,0,0,1.48,1.75c-.31.11-.61.19-.91.3a4,4,0,0,0-.8.34,6.91,6.91,0,0,1-.8.38,2,2,0,0,0-1.48.95,4.36,4.36,0,0,0-2.58,1.26,5.91,5.91,0,0,1,.53,1.29,5.91,5.91,0,0,0,.53,1.29,5.45,5.45,0,0,1,.3,1.94c0,.38,0,.76,0,1.18l-.12,1.25a2,2,0,0,1,0,.57c0,.49-.08,1-.15,1.63s-.12,1.07-.15,1.41c-.08.53-.16,1.1-.23,1.63s-.15,1.1-.23,1.64v2.05a1,1,0,0,1,0,.34v1.94c0,.3,0,.61-.07.95a2.84,2.84,0,0,0-.23.72,3.4,3.4,0,0,1-.15.61s0,.07,0,.15a.49.49,0,0,0,0,.23s-.07-.08-.11-.08-.08,0-.12-.08a3.79,3.79,0,0,1-.87,1.33c.11-.41.15-.79.23-1.21a14.66,14.66,0,0,0-.38-3.15L63,27.88a3,3,0,0,0-.22-.45l-.31-.31a3.32,3.32,0,0,1-.61-.87,3.7,3.7,0,0,1-.41-.34l-.35-.38a2.37,2.37,0,0,1-.26-.34,3.46,3.46,0,0,1-.23-.69,1.24,1.24,0,0,0-.27-.57.69.69,0,0,0-.34-.34.35.35,0,0,1-.23-.23,1.06,1.06,0,0,0-.26-.42,3.79,3.79,0,0,1-.38-.45.79.79,0,0,0-.34-.27.56.56,0,0,1-.31-.34.84.84,0,0,0-.34-.49l-.42-.34a4.77,4.77,0,0,1-.45-.42,6.37,6.37,0,0,1-.5-.57,1.64,1.64,0,0,1-.26-.42,2,2,0,0,0-.27-.42A1.17,1.17,0,0,1,56,19a2.37,2.37,0,0,1-.34-.26l-.34-.35a2.82,2.82,0,0,1-.61-1.1,1.48,1.48,0,0,0-.38-.61,1.58,1.58,0,0,0-.6-.56,3.35,3.35,0,0,1-1-.92,1.49,1.49,0,0,1-.15-.19c-.23-.3-.42-.6-.61-.87a6.76,6.76,0,0,0-.46-.65,2.58,2.58,0,0,1-.26-.41,1.34,1.34,0,0,1-.19-.23l-.23-.34-.34-.35A4.76,4.76,0,0,1,50.25,11c0,.08,0,.12-.08.16s-.07.11-.07.15l-.08.19s0,.11-.08.23v0c0,.19,0,.31,0,.35a1,1,0,0,1,.08.34,3.67,3.67,0,0,0,.23.95,1.21,1.21,0,0,0,.26.45,1.18,1.18,0,0,1,.08.31v.34a2.92,2.92,0,0,0,.26,1.25,3,3,0,0,1,.27,1.29v.23a1.69,1.69,0,0,1,0,.38.94.94,0,0,0,0,.31c0,.23.11.49.19.83s.11.54.11.57v.12a.14.14,0,0,1,0,.11v.53a2.69,2.69,0,0,0,.15.92,1.56,1.56,0,0,1-.15.49,1.29,1.29,0,0,0-.11.53v.61a1,1,0,0,0,0,.34v.53c0,.12,0,.19,0,.23l-.23.68a3.63,3.63,0,0,0-.11.42v.31a.88.88,0,0,1,0,.3,3,3,0,0,0-.23.8l-.11.8a3.2,3.2,0,0,0-.23.57,3.5,3.5,0,0,1-.19.45.94.94,0,0,0,0,.31.68.68,0,0,1,0,.26l-.38,1.07-.23.79c-.07.27-.3.42-.38.69l-.11.23a1.07,1.07,0,0,0-.11.26l-.23.69a.56.56,0,0,0-.12.34h-.15s-.07,0-.07,0v-.15a2.61,2.61,0,0,0,.07-.42V31.8a1.32,1.32,0,0,0,.23-.46s0-.15,0-.3l.12-.46.15-.3.19-.19a.7.7,0,0,0,.11-.23v-.15a1.61,1.61,0,0,0,0-.42,2.91,2.91,0,0,1,0-.53V27.43a3.16,3.16,0,0,1,.11-.42,1.05,1.05,0,0,0,.08-.34,1,1,0,0,1,.07-.34c0-.19.08-.27.12-.27s.07-.15.11-.46v-.15a1.34,1.34,0,0,0-.15-.68,1,1,0,0,1-.15-.57v-.53a1,1,0,0,1,0-.31.88.88,0,0,0,0-.3,1.94,1.94,0,0,1,0-.42v-.76a1,1,0,0,1,0-.34,1.54,1.54,0,0,0,.07-.38V19a2.55,2.55,0,0,1,0-.53V13.07a1.18,1.18,0,0,1,.08-.31v-.19a.85.85,0,0,0,.11-.3c0-.15.08-.27.12-.38a.75.75,0,0,1,0-.15v-.57c0-.19,0-.31,0-.35l.23.08a.12.12,0,0,0,0,.11s.07-.49.07-.49a6.12,6.12,0,0,0-.68-.49,7.9,7.9,0,0,1-.68-.5C48.61,9.65,48.23,9.76,47.82,9.91Z"/><path class="cls-2" d="M76.62,15.12s0,0,0-.08-.08-.11-.08-.15a.3.3,0,0,1,.16-.27.57.57,0,0,0,.22-.22h.27a1,1,0,0,0,.27-.08.68.68,0,0,1,.45.11,2.37,2.37,0,0,0,.42.27h.53c.61.08.65.34.72.91l.19.19A2.08,2.08,0,0,0,80,16a.76.76,0,0,1,.42.61c0,.11.07.23.11.38s.08.26.11.38c0,.34.08.61.12.83s.07.53.11.91c-.07.65-.11,1.3-.15,1.94L80.65,23c0,.19-.08.34-.12.49l-.11.46v.15a1.35,1.35,0,0,0,.07.27.66.66,0,0,0,0,.26,1.11,1.11,0,0,1-.08.35.44.44,0,0,1,.11.34l-.11.34V26s-.08.08-.08.12a.2.2,0,0,1-.07.11,1,1,0,0,0-.15.49v.5a.59.59,0,0,1-.12.34,1,1,0,0,0,0,.34.73.73,0,0,1,0,.27.54.54,0,0,0-.12.23.64.64,0,0,1-.07.19.42.42,0,0,0,0,.19.89.89,0,0,1,0,.3,1.69,1.69,0,0,1-.07.34,1,1,0,0,0,0,.34c-.08.46,0,.92-.08,1.37V32c0,.16,0,.27-.11.31a.81.81,0,0,0,0,.34v.91a.15.15,0,0,0,0,.12l.07.15a1.43,1.43,0,0,0,.12.64A1.14,1.14,0,0,1,80,35a8.1,8.1,0,0,0,2.81,4.18l.53.46.23.11a1.58,1.58,0,0,0,.31.11l.22.23s-.11.08-.34.08-.19,0-.23,0a2.81,2.81,0,0,0-.6-.19L82,39.24a.84.84,0,0,1-.49-.45.68.68,0,0,0-.34-.38c-.15-.08-.65-.27-.65-.46v-.23a.89.89,0,0,1-.45-.41c-.12-.19-.19-.35-.27-.46a.88.88,0,0,1-.08-.27.85.85,0,0,0-.07-.26.72.72,0,0,1-.15-.19l-.08-.08a.65.65,0,0,0-.11-.34l-.19-.42a1.32,1.32,0,0,1-.16-.23,1.11,1.11,0,0,0-.15-.22.55.55,0,0,1,.08-.19.55.55,0,0,0,.07-.23.56.56,0,0,0-.22-.31.33.33,0,0,1-.16-.3l-.11-.34a.73.73,0,0,1,0-.27,2.72,2.72,0,0,1,0-.68,4,4,0,0,0-.07-.8,2.59,2.59,0,0,0,0-.49,4.17,4.17,0,0,1,0-.72,4.23,4.23,0,0,0,0-.73,3.79,3.79,0,0,1,0-.53v-.68s0,0,0-.08v-.38c0-.07,0-.11,0-.15l.26-.23a.31.31,0,0,1-.07-.23v-.83l.07-.84a6.34,6.34,0,0,0,0-.91,7,7,0,0,0,.08-.91,6,6,0,0,1,.07-.88,1,1,0,0,0,.08-.34V22c0-.11.07-.22.11-.3a.71.71,0,0,0,0-.3V19.07a.33.33,0,0,1,.08-.23.36.36,0,0,0,.07-.23v-.38a.68.68,0,0,1,0-.26.55.55,0,0,0,0-.27v-1l-.34-.34a.81.81,0,0,1-.23-.45s0-.12,0-.23l-.23.23a1.16,1.16,0,0,0-.34.19.87.87,0,0,1-.46.11,1.34,1.34,0,0,0-.6.23,1.37,1.37,0,0,1-.61.22,3.54,3.54,0,0,0-.95.16l-.34.11h-.46a.21.21,0,0,0-.19-.11.58.58,0,0,1-.23-.08h-.22a.75.75,0,0,1-.46.27h-.53v.8a.14.14,0,0,1,0,.11.14.14,0,0,0,0,.11.3.3,0,0,0,0,.16.17.17,0,0,1,0,.11c0,.11,0,.19,0,.23a1.37,1.37,0,0,0-.08.49.71.71,0,0,0,0,.27.9.9,0,0,1,0,.26.61.61,0,0,0-.12.34,1,1,0,0,0-.11.38v.65a2,2,0,0,1-.19.61V22a1.45,1.45,0,0,1-.19.31,4.25,4.25,0,0,1-.23.95l-.11.34a1,1,0,0,0,0,.34v.42a1,1,0,0,1,0,.34.68.68,0,0,1-.11.38,1.48,1.48,0,0,0-.16.34.49.49,0,0,0,.08.23.53.53,0,0,1,.08.23v.42a.51.51,0,0,0,0,.26c0,.12,0,.19,0,.23v.53s-.08.08-.08.12a.13.13,0,0,0,0,.11.15.15,0,0,1,0,.12.14.14,0,0,1,0,.11.14.14,0,0,0,0,.11.45.45,0,0,0,0,.23.73.73,0,0,1,0,.31v.38a.12.12,0,0,1,0,.11v.87a.29.29,0,0,1,.07.19,1.11,1.11,0,0,0,.08.35v.26s0,.08.08.12c.19,0,.26,0,.26.07,0,.19,0,.49-.26.49l-.35-.07a1,1,0,0,1-.15-.23.62.62,0,0,0-.23-.23,2.22,2.22,0,0,1-.26-.79,2.76,2.76,0,0,0-.23-.77.87.87,0,0,0-.11-.22.68.68,0,0,1-.12-.23V27.54s0-.11,0-.23a1.9,1.9,0,0,1,0-.45v-.38l-.12-.12a.12.12,0,0,1,0-.11.56.56,0,0,1-.07-.3.93.93,0,0,1,.07-.35v-.34a1.05,1.05,0,0,1,.08-.34v-.3s0-.08.08-.12.07-.07.07-.11V23.1a4.66,4.66,0,0,1,.08-.61.73.73,0,0,1,0-.31.56.56,0,0,0,0-.22v-.19s0-.08.08-.12,0-.07.08-.11l.11-.12a1.44,1.44,0,0,1,0-.45v-.38a.75.75,0,0,1-.07-.34,1.69,1.69,0,0,1,0-.46v-.27a.92.92,0,0,1,.08-.26v-1a.58.58,0,0,1,.08-.23.62.62,0,0,0,.07-.26V16.07a1.85,1.85,0,0,0,.08-.46V13.79a.47.47,0,0,1,0-.23.61.61,0,0,0,0-.23.15.15,0,0,0,0-.11.15.15,0,0,1,0-.12.14.14,0,0,1,0-.11.17.17,0,0,0,0-.11V10.82a.14.14,0,0,1,0-.11v-.08s0-.11,0-.19V10.1c0-.07,0-.11,0-.15a.31.31,0,0,1-.08-.23s.08-.07.08-.11a.15.15,0,0,1,0-.12l-.12-.11s-.07-.08-.07-.11a.57.57,0,0,1,0-.27V8.77a1.26,1.26,0,0,0,.08-.23V8.43l0-.11a.38.38,0,0,0,0-.19.42.42,0,0,1,0-.19s0-.08,0-.23a.15.15,0,0,0,0-.12V7.48c-.07,0-.11,0-.15-.08s0-.07,0-.15,0-.11,0-.15A.48.48,0,0,0,70.08,7V6.8a.49.49,0,0,0,0-.19s0-.08-.12-.08-.11,0-.11-.07,0-.12,0-.16a.15.15,0,0,1,0-.11c.12-.08.16-.11.16-.15a5.42,5.42,0,0,0,.57-.27s.11,0,.19,0a.36.36,0,0,1,.19.07c.11.08.19.12.19.08a.53.53,0,0,1,.22.12.85.85,0,0,0,.16.11.66.66,0,0,0,.26.15.59.59,0,0,1,.23.12,1.18,1.18,0,0,0,.15.11c.08.07.12.11.15.11s0,.08.08.16.08.11.08.15a.2.2,0,0,0,.07.11s.08.08.08.11a.15.15,0,0,0,0,.12.15.15,0,0,1,0,.11.33.33,0,0,1,.08.23s0,.08.11.08a.17.17,0,0,1,.15.07s0,.08.08.12l.08.07v.15a.31.31,0,0,0,.07.23.15.15,0,0,1,0,.12.14.14,0,0,0,0,.11.31.31,0,0,0,.11.23V9.3a.15.15,0,0,1,0,.12v.19s0,.07,0,.07,0,.12.15.23a.3.3,0,0,0-.08.19v.15s0,.08.08.12.08.07.08.11a2,2,0,0,1,0,.46v.15c0,.19.08.3.08.34a.15.15,0,0,1,0,.12.42.42,0,0,0,0,.19.3.3,0,0,1,.07.19v.19a.14.14,0,0,1,0,.11.17.17,0,0,0,0,.11c0,.08,0,.16,0,.19a.28.28,0,0,1,0,.19V13.9a1.79,1.79,0,0,1,0,.46l-.07.45.87.08A1.05,1.05,0,0,1,75,15l.34.11h1A.63.63,0,0,1,76.62,15.12Zm1.44-.46-1.18.5A4.7,4.7,0,0,0,78.1,15S78.06,14.81,78.06,14.66Z"/><path class="cls-2" d="M83.92,30.09v0c-.08,0-.19,0-.65.42a.54.54,0,0,1,.3-.34s.08,0,.08,0l.27-.23v.19s0,0,.07,0,.08,0,.12.15l.34-.11a1.05,1.05,0,0,1,.34-.08c.11,0,.19,0,.23,0,0-.42.07-.84.11-1.21s.08-.69.12-.92a1.18,1.18,0,0,1,.07-.22l.12-.35a.28.28,0,0,1-.08-.22V26a1,1,0,0,0,0-.34v-.53a.66.66,0,0,0,0-.23.82.82,0,0,1,0-.23,1.28,1.28,0,0,0,.07-.26.53.53,0,0,1,.08-.23l-.12-.46a3,3,0,0,0-.11-.41,1.25,1.25,0,0,0-.19-.54.72.72,0,0,0-.11-.22.68.68,0,0,1-.16-.38l.12-.23a.59.59,0,0,1,.23-.12.3.3,0,0,1,.19-.07,1.12,1.12,0,0,0,.3-.08h.87a.15.15,0,0,1,.12,0,.12.12,0,0,0,.11,0,1,1,0,0,0,.34.07h.23l.11.12s.12,0,.23,0a1.16,1.16,0,0,1,.27.11l.23.11s.11,0,.19,0h.53l.34.12a3.37,3.37,0,0,1,.46.15.54.54,0,0,0,.22.11.59.59,0,0,1,.23.12l.69.07.6.12a1.65,1.65,0,0,0,.61.15h.61a1.94,1.94,0,0,1,.68.11h.65a2,2,0,0,1,.08-.42v0a.18.18,0,0,0,0-.12v-.53c0-.15,0-.27.12-.3a.38.38,0,0,0,0-.19,1.58,1.58,0,0,1-.11-.31.56.56,0,0,1,.07-.19l.12-.23a.14.14,0,0,0,0-.11L94,20.63a.15.15,0,0,0,0-.12s0-.07.08-.11v-.46a.68.68,0,0,0,0-.26L94,19.34V18.8a.41.41,0,0,0,0-.22,1,1,0,0,0-.07-.23,1.59,1.59,0,0,1-.08-.23s.08-.08.08-.11a.15.15,0,0,0,0-.12l-.11-.11a.62.62,0,0,1,.15-.38.51.51,0,0,0,.07-.23.53.53,0,0,1,.08-.23h-1.9c0,.08,0,.11-.15.15s-.15.08-.12.12h-1c-.19,0-.26.07-.22.07s0,0-.08,0a1,1,0,0,0-.34,0H90a3.28,3.28,0,0,0-.38.15,2,2,0,0,1-.5.16l-1.29-.31a5.43,5.43,0,0,1-1.14-.38,1.48,1.48,0,0,1-.3-.23,1.33,1.33,0,0,0-.35-.22.19.19,0,0,0-.07-.12s-.08-.07-.08-.11a2.12,2.12,0,0,0-.34-.27,1.92,1.92,0,0,1-.34-.26.38.38,0,0,0,0-.19.73.73,0,0,1,0-.31.18.18,0,0,1,.12,0s.07,0,.11-.08h1a1.15,1.15,0,0,0,.61.15,3.25,3.25,0,0,1,.68.08l.57.11h1.1a9.3,9.3,0,0,0,1-.19c.34-.07.68-.15,1-.19a2.33,2.33,0,0,0,.54,0,2.08,2.08,0,0,1,.41,0l.54-.12.45-.11h1a1.15,1.15,0,0,1,.45.11h.35c0,.08.11.12.34.12l.57.22a.56.56,0,0,1,.34.31v.26a.15.15,0,0,1,0,.12c0,.11,0,.15.15.15h.15a1.54,1.54,0,0,0,0,.46,1.3,1.3,0,0,0,0,.41l-.23.23V18a1.18,1.18,0,0,0-.08.31,1.16,1.16,0,0,1,0,.3,1.83,1.83,0,0,0,.07.42,1.81,1.81,0,0,1,.08.42.55.55,0,0,0-.08.19s0,.07-.07.11v.76a2,2,0,0,1,0,.46l0,.11v.23a1,1,0,0,0,0,.34V23a1,1,0,0,1,0,.34l-.11.42a1,1,0,0,0,0,.34,1.54,1.54,0,0,1,.07.57.77.77,0,0,1-.07.35,2.78,2.78,0,0,1,.07.57,2.73,2.73,0,0,0,0,.57.09.09,0,0,0,0,.07.86.86,0,0,0-.07.12.12.12,0,0,1,0,.11v.15a2.8,2.8,0,0,1-.08.57,3.27,3.27,0,0,0-.08.69v.91c0,.19,0,.26.12.26a.15.15,0,0,0,.11,0,.31.31,0,0,1,.23.07.27.27,0,0,1,0,.19l-.11.12-.19.11-.19.11v.46a1.36,1.36,0,0,0,.07.38l.12.34a.92.92,0,0,0,.11.34,1,1,0,0,1,.12.5,2.46,2.46,0,0,0,.07.3,1.77,1.77,0,0,1,.08.46c0,.11,0,.19,0,.22a.52.52,0,0,1-.46-.34c-.11-.23-.3-.61-.57-1.1a3.38,3.38,0,0,1-.41-.83l-.16.07a.12.12,0,0,1-.11,0,8.76,8.76,0,0,1-1,.08,7.19,7.19,0,0,0-1,.07.59.59,0,0,1-.22.12h-.19a.46.46,0,0,1-.35-.12l-.22.23a1.37,1.37,0,0,1-.42.07H91a.74.74,0,0,1-.27,0,.68.68,0,0,0-.3,0,3.44,3.44,0,0,1-.8.23s-.11,0-.23,0H89.2a2.58,2.58,0,0,0-.76.11c-.27,0-.5-.07-.69-.07a4.93,4.93,0,0,1-.68-.08h-.5c-.07.08-.15.23-.22.3l-.12.58a4.25,4.25,0,0,1-.11.45s-.08.08-.12.08h-.15a.33.33,0,0,1-.15-.16L85.59,32V30.92a.73.73,0,0,0-.27,0,.29.29,0,0,1-.19-.07,2.75,2.75,0,0,1-.8-.27c-.11,0-.38-.19-.38-.34A.15.15,0,0,0,83.92,30.09Zm2.24-16.95L85.93,13s.07,0,.11-.08a.36.36,0,0,1,.19-.07s.08,0,.08,0,0-.08.07-.11,0-.12,0-.23l.23-.23c.11,0,.15-.08.15-.11v0a.09.09,0,0,1,.08-.08s0-.07.08-.11l.07-.08a.92.92,0,0,1,.08-.26.39.39,0,0,1,.19-.19c0-.12,0-.16.11-.16a.48.48,0,0,0,.11-.19c0-.07.08-.11.12-.11a.08.08,0,0,0,.07-.08l.12-.11a.14.14,0,0,0,0-.11.19.19,0,0,1,.07-.12l.12-.11a.49.49,0,0,1,0-.19.29.29,0,0,0,0-.15s0-.08.08-.12l.34-.34V9.38A.8.8,0,0,0,88.66,9s.08-.08.08-.11,0-.08,0-.08.11-.3.19-.3,0,0,0,0h.07c0-.07.12-.15.19-.15h.19c0-.07.23-.19.31-.19a.12.12,0,0,0,.11,0A.19.19,0,0,0,90,8.16h.15c0,.08.08.08.12.08a.31.31,0,0,0,.23.08.19.19,0,0,1,.07.15.2.2,0,0,0,.08.15s0,.08,0,.15,0,.12,0,.15,0,.08,0,.16a.22.22,0,0,0,0,.15v.23a.19.19,0,0,1,.12.07s.07.08.11.08.15,0,.15.15.19.27.23.27l.12.11a1.18,1.18,0,0,1,.11.15v.23a.73.73,0,0,1,.15.11l.12.12a.14.14,0,0,1,.11,0,1.49,1.49,0,0,1,.15.19l.12.11a.12.12,0,0,0,.11,0l.11.23a.65.65,0,0,0,.12.15,4.33,4.33,0,0,0,.34.38l.27.26a1.79,1.79,0,0,0,.19.16l.11.15s0,0,0,0h.15l.11.11a.15.15,0,0,0,.12,0l.15.07a.14.14,0,0,0,.11,0s.08,0,.16.08a1.12,1.12,0,0,1,.11.3c0,.08,0,.12-.15.12a.18.18,0,0,0-.12,0,.12.12,0,0,1-.11,0h0a.13.13,0,0,1-.11,0h-.23s0,0-.11,0a.15.15,0,0,0-.12,0h-1a.13.13,0,0,1-.11,0l-.19-.11A.32.32,0,0,1,92,13.1L91.89,13s-.07,0-.15,0,0-.08,0-.08,0,0,0-.07-.08-.16-.12-.16a.5.5,0,0,1-.26.08s-.27-.3-.27-.38,0-.08-.08-.11-.11-.08-.11-.12,0-.07-.11-.11h0c-.08,0-.23-.19-.23-.23l-.11-.11c-.12,0-.16-.08-.16-.12a.54.54,0,0,1-.22-.11.15.15,0,0,0-.12,0v-.15s-.07,0-.11-.08l-.08-.07a2.19,2.19,0,0,1-.23.07.14.14,0,0,0-.11,0s-.08.08-.11.19a.18.18,0,0,1-.19.19.12.12,0,0,1-.08,0c-.08,0-.11.07-.11.15a.12.12,0,0,1,0,.11l-.12.12s-.07,0-.11.11a.52.52,0,0,1-.11.15.15.15,0,0,0,0,.12s0,.07-.08.11a2.65,2.65,0,0,0-.76.31l-.11.11a.15.15,0,0,1-.12,0,.14.14,0,0,0-.11,0s0,.11,0,.22-.07.08-.11.08,0,0,0,.11a.13.13,0,0,0-.11,0,.15.15,0,0,1-.12,0c-.07,0-.19.15-.19.23v.07s0,0-.11,0l-.12-.11h-.22v-.34a.15.15,0,0,1,0-.12l0,0S86.16,13.26,86.16,13.14Zm7.67,12.43v-.31l-.38.38a1.44,1.44,0,0,1,0-.45,3.63,3.63,0,0,0,0-.57h-2l-.8-.12a4.53,4.53,0,0,0-.72,0,1.6,1.6,0,0,0-.42-.07H89a1.42,1.42,0,0,1-.46-.19,1.45,1.45,0,0,0-.34-.19,2.68,2.68,0,0,0-.31.11.55.55,0,0,1-.19.08.67.67,0,0,1-.49-.23.2.2,0,0,0-.07.11s0,.08-.08.12a1.05,1.05,0,0,1,.08.34,1.31,1.31,0,0,0,0,.34,1,1,0,0,1,.19.57.47.47,0,0,1,0,.23.52.52,0,0,0,0,.19l.07.15s0,.12,0,.23a1,1,0,0,0,0,.34v.15a.28.28,0,0,0,0,.19.71.71,0,0,1,0,.27s0,.11,0,.23a.33.33,0,0,1-.07.23l-.11.11a.71.71,0,0,0,0,.27v.19a.18.18,0,0,1-.12,0s-.07,0-.11.16a.26.26,0,0,0,0,.15v.15a7.75,7.75,0,0,1-.46,1.33h1.41a2.06,2.06,0,0,1,.72.11A4.27,4.27,0,0,1,89.73,30H92.5a7.13,7.13,0,0,0,.8,0,5.62,5.62,0,0,0,1.18-.12l-.12-.57a3.63,3.63,0,0,1,0-.57c0-.15-.08-.3-.12-.42l-.11-.57a1.25,1.25,0,0,1-.12-.6.39.39,0,0,0,0-.16.38.38,0,0,1,0-.19.92.92,0,0,0,0-.38c0-.11.08-.19.11-.26a.47.47,0,0,0,0-.23l-.11-.11A.3.3,0,0,1,93.83,25.57Z"/><path class="cls-2" d="M101.24,20.32a5.28,5.28,0,0,0,.23,1,.5.5,0,0,1,.08.26,1.09,1.09,0,0,0,.07.35,1,1,0,0,1,.08.34,1.37,1.37,0,0,0,.07.34v.8a1.16,1.16,0,0,0,0,.3,1.21,1.21,0,0,1,0,.34v3.27l-.15.46c0,.15-.08.26-.12.38a.63.63,0,0,0,0,.23,1.71,1.71,0,0,0,0,.41v.73a1.11,1.11,0,0,1-.08.34c-.11.15-.19.26-.23.3a.79.79,0,0,1-.23.34,2.37,2.37,0,0,0-.26.34v.38a1,1,0,0,1,0,.35.21.21,0,0,1-.23.15c-.15,0-.26,0-.3,0a3.61,3.61,0,0,1-.5-1.48c-.07-.57-.11-1-.15-1.37a6.22,6.22,0,0,0,0-.76c0-.34,0-.64,0-.87a5.32,5.32,0,0,0,.19-1c0-.11,0-.19,0-.23a.12.12,0,0,1,0-.11v-2a.77.77,0,0,1,.08-.19.76.76,0,0,0,.07-.19V22.26a1,1,0,0,1,0-.34v-.76a2.37,2.37,0,0,1,.08-.49V19.26a2.27,2.27,0,0,1-.3-1.33v-.34c-.12-.34-.23-.65-.31-.92s-.15-.56-.26-.87.11-.64.38-.64c.11,0,.19,0,.22,0a2.51,2.51,0,0,0,1,1.22.33.33,0,0,0,.08.23.34.34,0,0,1,.07.23,2.41,2.41,0,0,1,.5,1h.34a2.54,2.54,0,0,0,.57-.19l.45-.15a6.17,6.17,0,0,1,1.49-.76.28.28,0,0,1,.22-.08h.35s.11,0,.22-.15l.23-.22a1.5,1.5,0,0,0,.34-.12l.65-.23.72-.22c.23-.08.42-.12.53-.16a8.45,8.45,0,0,1,1.52-.57h.23c.27.16.53.27.76.38a6.52,6.52,0,0,1,.68.38c.12,0,.19.08.19.16v.15a1.5,1.5,0,0,1,0,.38.68.68,0,0,0,0,.26v.72a.45.45,0,0,1,0,.23.49.49,0,0,0,0,.23.31.31,0,0,0,.08.23.79.79,0,0,1,.11.19,1.62,1.62,0,0,1,.08.38.71.71,0,0,0,.07.27v.53a.92.92,0,0,0,0,.38,1.62,1.62,0,0,1,.12.26,2.38,2.38,0,0,1,0,.57c0,.15-.08.31-.12.5l-.19,2c0,.27-.11.42-.19.42s-.07.11-.11.38a3.8,3.8,0,0,0,0,.61,2.45,2.45,0,0,1-.11.3.54.54,0,0,0-.08.27v.19a.28.28,0,0,0,0,.19,2.13,2.13,0,0,0,0,.57l0,.23c0,.15-.08.3-.11.45l-.12.46a1.12,1.12,0,0,0,0,.3v.19c0,.15,0,.53.12,1.18,0,.49-.08.87-.08,1.37V31s0,.08.12.15a.37.37,0,0,1,.11.27.27.27,0,0,1,0,.15,2.45,2.45,0,0,0-.11.3l-.08.46a1.83,1.83,0,0,0,.12.34l.11.3c0,.08,0,.12,0,.16a.13.13,0,0,0,0,.11.92.92,0,0,0,.16.34,1.87,1.87,0,0,1,.22.53,2.54,2.54,0,0,1,.19.57c0,.19.08.35.12.5a3.34,3.34,0,0,0,.19.38c.07.15.15.26.19.38a4.08,4.08,0,0,0,.57.87.5.5,0,0,0,.23.27,1.42,1.42,0,0,1,.34.42,3.49,3.49,0,0,0,2,1.06s.08,0,.08.15v.15l-.12.12h-1a.52.52,0,0,0-.38-.19c-.54,0-1.79-1.18-2.17-1.56a1.45,1.45,0,0,0-.19-.34,2,2,0,0,1-.15-.27l-.23-.34a1.45,1.45,0,0,1-.19-.34.84.84,0,0,0-.57-.61c0-.11-.07-.23-.11-.34l-.12-.34v-.19l0-.23a.52.52,0,0,1-.08-.34c-.08,0-.11-.12-.11-.27V33.2a1.93,1.93,0,0,0-.19-.34l-.12-.34a1,1,0,0,1-.07-.34,2.41,2.41,0,0,0,0-.42,4.65,4.65,0,0,1,0-.76v-.34c0-.15,0-.23-.08-.23a.34.34,0,0,0,0-.19.14.14,0,0,1,0-.11.63.63,0,0,1,0-.23,1.34,1.34,0,0,0,0-.34v-.23c0-.12,0-.5,0-1.14V26.52a13,13,0,0,1,.07-1.45c0-.34.08-.57.08-.68a.55.55,0,0,0,0-.27.26.26,0,0,1,0-.15s0-.19.08-.46a6.18,6.18,0,0,0,.07-1.14v-2.5a2.28,2.28,0,0,1,.16-.88.62.62,0,0,1-.12-.38V17.36a2,2,0,0,1,.12-.42,1.48,1.48,0,0,0,0-.42s-.07,0-.07-.11a.12.12,0,0,0,0-.11,4,4,0,0,1-1.56.6.8.8,0,0,0-.34.12,4.23,4.23,0,0,1-1.18.45l-.07.08a1.84,1.84,0,0,1-.61.46l-.46.19a2.46,2.46,0,0,0-.45.11,4.53,4.53,0,0,1-.46.11l-.38.12a1.48,1.48,0,0,0-.46.22,1.23,1.23,0,0,1-.57.35,2.33,2.33,0,0,0,.12.3,1.86,1.86,0,0,1,.11.27Z"/><path class="cls-2" d="M120.36,29.17a.12.12,0,0,1,0-.11.13.13,0,0,0,0-.11h.23a.69.69,0,0,1,.23.11h.3l-.27,0a.85.85,0,0,0,.42.11.48.48,0,0,0,.53-.53,2.49,2.49,0,0,0-.07-.45,2.6,2.6,0,0,1,0-.54v-.53a2.48,2.48,0,0,0,.08-.49,2.49,2.49,0,0,1,.07-.5,9.68,9.68,0,0,1,.42-1.29,1.45,1.45,0,0,0,.3-.42,1.58,1.58,0,0,1,.31-.41s.07,0,.11.07a.15.15,0,0,1,.12,0,.12.12,0,0,0,.11,0,.2.2,0,0,0,.11.07s.08,0,.12.08l.23.11a1.62,1.62,0,0,0,.26.12.36.36,0,0,0,.15.15l-.22.23v.23a.48.48,0,0,0,.15.38.12.12,0,0,1,0,.11.14.14,0,0,0,0,.11v.42a2.37,2.37,0,0,0,0,.46v.42l-.16.15c-.07.07-.11.11-.11.15a.12.12,0,0,0,0,.11l.11.12v.49a1.4,1.4,0,0,0,0,.42v.38a.25.25,0,0,0,.19.23.79.79,0,0,1,.35.23,1,1,0,0,1,.34-.08,1.05,1.05,0,0,0,.34-.08,3.18,3.18,0,0,0,.57-.19,4.23,4.23,0,0,1,.57-.19l3.42-.91,2.89-.68a7.55,7.55,0,0,0,.79-.19,6.16,6.16,0,0,1,.8-.19,9.16,9.16,0,0,0,1-.19,7.24,7.24,0,0,1,1-.19,2.73,2.73,0,0,1,.57,0H138l1.33.42.46.45a2.77,2.77,0,0,1,.38.35.68.68,0,0,1,0,.26.94.94,0,0,0,0,.31l-.12.57a2.69,2.69,0,0,0,0,.57c0,.07-.07.15-.19.26s-.19.19-.19.23v.19a1,1,0,0,1-.22.3v-1.1l-.23-.57a2.4,2.4,0,0,1-.15-.57.78.78,0,0,1-.12-.19,1.06,1.06,0,0,0-.11-.19h-.76a1,1,0,0,0-.34,0l-.35.11A1.74,1.74,0,0,1,137,28c-.19.11-.38.23-.61.34a1.61,1.61,0,0,1-.72.15,1.61,1.61,0,0,0-1,.68h-.3a1,1,0,0,1-.31.23h-.53a1,1,0,0,0-.34.23c-.12.12-.19.15-.23.15a.24.24,0,0,0-.23.12.37.37,0,0,1-.23.15l-.49.08s-.08.07-.08.11,0,.08-.15.11l-.38.12a1,1,0,0,1-.26,0,.18.18,0,0,0-.12,0s-.11,0-.23,0a2.53,2.53,0,0,1-.3.23l-.91.23a.39.39,0,0,0-.23.07,2.33,2.33,0,0,0-.3.12,1,1,0,0,1-.31,0l-.42.23h-.22s-.08,0-.15.08-.12.07-.16.07h-.22a.15.15,0,0,1-.12,0l-.11.12a.15.15,0,0,1-.12,0h-.3a.45.45,0,0,0-.23,0,.59.59,0,0,1-.23.12,1.07,1.07,0,0,0-.26.11s-.08,0-.15,0a.24.24,0,0,1-.16-.07l-.22.07c-.16,0-.27.08-.31.08h-.45a1.42,1.42,0,0,0-.46.11.39.39,0,0,0-.27-.15,1.12,1.12,0,0,1-.3-.08.31.31,0,0,1-.11-.15c0-.07-.08-.11-.12-.11a1,1,0,0,1-.42-.08l-.38-.19-.22-.23-.46-.11a5.19,5.19,0,0,1-.57-.42l-.57-.45-.23-.27a1,1,0,0,1-.19-.23l-.07-.15a.13.13,0,0,0,0-.11.15.15,0,0,0,0-.12.2.2,0,0,1,.07-.11s0-.08.08-.15ZM127.61,10a2.66,2.66,0,0,1,.27.22,1.57,1.57,0,0,0,.27.23,1.85,1.85,0,0,1,.3.23l.34.34a.3.3,0,0,1,.15-.19.63.63,0,0,0-.19-.26,5.29,5.29,0,0,1-.38-.54c-.15-.19-.26-.3-.34-.3s0,0-.07-.11a.15.15,0,0,1,0-.12h-.23l-.11-.23a.51.51,0,0,1-.16-.38s-.11,0-.15.08l.15-.11h.35a4.44,4.44,0,0,1,1-.12l.5.12a3.73,3.73,0,0,0,.56.07.52.52,0,0,0,.35-.19.68.68,0,0,1,.22-.11.66.66,0,0,1,.27.15,1.74,1.74,0,0,1,.27.46.14.14,0,0,1,0,.11.14.14,0,0,0,0,.11c0,.19.11.31.23.35a1.3,1.3,0,0,1,.19.15l.15.15v.15c0,.08,0,.12,0,.15l.3.31a2.39,2.39,0,0,1,.31.34,2.29,2.29,0,0,0,.3.34l.42.42v.3l.23.23a1.24,1.24,0,0,1,.22.19l.19.19a3.85,3.85,0,0,0,.8.12,2.8,2.8,0,0,0,.57-.08c.19,0,.42-.11.69-.19l2.28-.91.34-.23a1.45,1.45,0,0,1,.34-.19,4.22,4.22,0,0,0,.42-.23l-.23.34a1,1,0,0,1-.3.27l-.16.15a.18.18,0,0,1,0,.12.17.17,0,0,0-.08.15.2.2,0,0,1-.08.15,3.39,3.39,0,0,1-.41.46,1.16,1.16,0,0,0-.27.11,1.82,1.82,0,0,1-.34.68,2.24,2.24,0,0,0-.23.35,2,2,0,0,1-.23.34h-.23a.33.33,0,0,0-.22.07.78.78,0,0,1-.73.42,1.46,1.46,0,0,1-.57.12,2.8,2.8,0,0,1-.57-.08l-.57-.11-1.14-.46a8.48,8.48,0,0,0-.79-.49c-.27-.16-.54-.35-.8-.54l-1-.79a5.55,5.55,0,0,0-.34-.54,6.11,6.11,0,0,1-.34-.53l-.19-.3c0,.07,0,.15,0,.19v.26l-.12.08a.2.2,0,0,0-.07.11.83.83,0,0,0,.07.27.14.14,0,0,0,0,.11.18.18,0,0,1,0,.12l-.12.11a.19.19,0,0,0-.07.12.14.14,0,0,1,0,.11h-.23a.67.67,0,0,0-.15.38s-.08.08-.11.08A.19.19,0,0,0,128,13l-.11.12a.22.22,0,0,1-.15,0,1.17,1.17,0,0,1-.27.23,1.26,1.26,0,0,1-.23.08,1,1,0,0,0-.07.23H127a1.64,1.64,0,0,0-.08.22h-.15s0,.08-.11.16h-.23v.15a.25.25,0,0,1-.19.23s-.08,0-.08.15,0,.15-.11.15l-.12.23c0,.11-.07.19-.11.19a.14.14,0,0,1-.11,0,.18.18,0,0,0-.12,0c0,.08-.11.19-.19.35,0,0,0,0-.11.07s-.08.08-.12.08a.36.36,0,0,1,0,.19L125,16c-.15,0-.23.08-.27.08l-.22.07c0,.12,0,.19,0,.23l-.23.23a1,1,0,0,1-.11.23.14.14,0,0,0,.11,0,.12.12,0,0,1,.11,0,.49.49,0,0,1,.23,0,1,1,0,0,0,.27,0l1.1-.27a2.2,2.2,0,0,0,.53,0,2.2,2.2,0,0,1,.53,0c.54,0,1.07-.07,1.6-.07s1.06,0,1.59-.08l.69.08a4.11,4.11,0,0,0,.72,0,3.63,3.63,0,0,0,.57,0,2.73,2.73,0,0,1,.57,0l.11.11h.35l.79.23a6.16,6.16,0,0,0,.8.19c.27.12.53.23.76.31s.5.19.76.3l.38.23a1.68,1.68,0,0,0,.34.19l.46.34c.15.12.3.23.42.34l.11.12c.12.11.15.19.15.22s0,.08.08.12a.14.14,0,0,1,0,.11s.07.08.11.08a.15.15,0,0,1,.12,0,.72.72,0,0,1,.11.22.14.14,0,0,0,.11,0,.15.15,0,0,1,.12,0s.07.11.15.19.11.15.15.19l.23.23a.56.56,0,0,1,.11.19.78.78,0,0,0,.12.19.13.13,0,0,0,0,.11v.31c0,.11,0,.15.11.15l.23.23a.12.12,0,0,1,0,.11l.15.23v.23a1,1,0,0,1,.07.34,1.44,1.44,0,0,0,0,.45.73.73,0,0,0,0,.27.61.61,0,0,1,0,.23,1.06,1.06,0,0,0,0,.34v.49a5.85,5.85,0,0,0-.26.57,1.12,1.12,0,0,1,.07.38v.38l-.22.35c0-.42-.08-.84-.16-1.26l-.22-1.25c-.08-.19-.23-.46-.42-.8a2,2,0,0,1-.31-.91c0-.12-.07-.19-.11-.19s-.11,0-.27-.08a4.09,4.09,0,0,0-.49-.61l-.3-.45a3.89,3.89,0,0,0-.35-.42l-.6-.61a1.1,1.1,0,0,0-.65-.26,1,1,0,0,0-.49-.19c-.12,0-.19,0-.23,0a5.08,5.08,0,0,0-.57-.23,2,2,0,0,1-.46,0,1.62,1.62,0,0,0-.53-.11.68.68,0,0,0-.3,0l-.35-.11a1,1,0,0,0-.34,0,.51.51,0,0,0-.26,0,2.65,2.65,0,0,0-.54,0,.86.86,0,0,1-.3,0,.86.86,0,0,0-.3,0h-1a.88.88,0,0,1-.27-.08.52.52,0,0,1-.3.19h-.88l-.23.23s-.11,0-.19,0a.36.36,0,0,0-.19.07c-.26,0-.45-.07-.6-.07s-.08.15-.12.15-.07,0-.07,0,0,0-.08,0-.07,0-.11.08-.19,0-.23,0a.88.88,0,0,1-.3,0h-.31l-.64-.11-.65-.12a2,2,0,0,0-.57,0L124,18.8a.89.89,0,0,0-.27-.07.17.17,0,0,1-.11,0s-.08,0-.12.08l-.45-.57a.78.78,0,0,1-.12-.19,1.06,1.06,0,0,0-.11-.19.19.19,0,0,0-.12-.07s-.07,0-.11-.08l-.23-.23a.63.63,0,0,0-.26-.19,2.84,2.84,0,0,0-.27-.42.92.92,0,0,1-.23-.53v-.19c0-.07,0-.11,0-.15v-.19a1.73,1.73,0,0,1,.34.08l.15-.16c.08,0,.12,0,.16-.07s.07-.08.07-.12,0-.07.08-.11,0-.11.07-.23v-.45a.18.18,0,0,1,.12,0l.11.12a6.07,6.07,0,0,1,1.83-2.81h.07l.08-.08s0-.08,0-.08a.2.2,0,0,0,.11-.07l.11-.12a.18.18,0,0,1,.12,0,.13.13,0,0,0,.11,0,.53.53,0,0,0,.08-.23c0-.15.23-.34.34-.42V10.9a1,1,0,0,0,.3-.23l.12-.11.11-.23.12-.11v-.16c.11,0,.19,0,.22,0l.08-.07a.12.12,0,0,1,0-.08.14.14,0,0,0,0-.11.18.18,0,0,1,0-.12.64.64,0,0,1,.19-.07h0A1.11,1.11,0,0,1,127.61,10Z"/><path class="cls-2" d="M143.8,17.7v-.27l-.15.2v.11l-.08,0-.11.12a.12.12,0,0,0,0-.08.12.12,0,0,1,0-.08l0,0,.08-.07,0-.23.19-.35a.43.43,0,0,1,.15-.34,1,1,0,0,0,.38-.22,1.25,1.25,0,0,1,.27-.23,1,1,0,0,0,.34-.23,1,1,0,0,1,.23-.19,2.29,2.29,0,0,1,.46-.34.14.14,0,0,0,.11,0,.13.13,0,0,1,.11,0,.38.38,0,0,0,.19,0,.48.48,0,0,0,.23-.11,1.26,1.26,0,0,1,.34-.15,1.42,1.42,0,0,1,.46.11,1.25,1.25,0,0,0,.45.12,1.4,1.4,0,0,1,.42,0,1.36,1.36,0,0,0,.42,0,2.1,2.1,0,0,1,.46.11,1.71,1.71,0,0,0,.57.12h.45a1,1,0,0,0,.34,0,.66.66,0,0,0,.23,0,1,1,0,0,1,.34.23c.12.11.19.15.23.15a.09.09,0,0,0,.08-.08.08.08,0,0,1,.07-.07h.12a.39.39,0,0,1,.34.19c.19.41.91.57,1.33.57a1.29,1.29,0,0,1,.19.41.87.87,0,0,0,.23.42s0,.08,0,.15a.36.36,0,0,0,.15.27l.19.19a.83.83,0,0,0,.07.3l.12.23v.23A.39.39,0,0,0,154,19a.49.49,0,0,0,.15.34l.35.34a2.78,2.78,0,0,0,.07.57l.12.57c.11.34.22.64.34.95a4.13,4.13,0,0,1,.23.95.35.35,0,0,0,0,.15.47.47,0,0,1,0,.23v3h-.15a.47.47,0,0,0,0,.23v.23h0s0,0,0,.11,0,.19,0,.23l-.12.11c0,.12-.22.27-.34.27a.13.13,0,0,1-.11,0h-.08s-.07.08-.07.23a2.19,2.19,0,0,1,.07.23v.11l-.11.12a.92.92,0,0,0-.19.15.89.89,0,0,1-.23.38l-.11.11s-.08.08-.12.08-.19.07-.23.15a.14.14,0,0,0-.11,0l-.15.07c-.08,0-.12,0-.15.12a.7.7,0,0,1-.23.22l.26.27a.68.68,0,0,0,.23.12l.27.15a.47.47,0,0,1,.26.3,1.08,1.08,0,0,0,.38,0v.12s0,.07.08.11v.23s-.08.08-.11.08a.18.18,0,0,0-.12,0h-.34a.85.85,0,0,1-.34.23h-1.26c-.11.11-.19.19-.22.19a.15.15,0,0,0-.12,0,.13.13,0,0,1-.11,0,1.59,1.59,0,0,0-.23-.08.15.15,0,0,0,0,.12c0,.08-.07.11-.23.11h-.22a.15.15,0,0,0-.12,0,.49.49,0,0,1-.23.11h-.34a.88.88,0,0,1-.3,0h-.46a1.15,1.15,0,0,0-.42,0l-.07.08a.15.15,0,0,1-.12,0,.66.66,0,0,0-.26,0,.29.29,0,0,1-.15,0h-.27c-.11,0-.19,0-.23,0a.81.81,0,0,0-.23-.11.89.89,0,0,0-.38,0h-.22s-.08,0-.16,0a.66.66,0,0,1-.38-.15,1.24,1.24,0,0,0-.38-.23,1.22,1.22,0,0,1-.22-.19l-.16-.19h-.11a.45.45,0,0,0-.23,0,.28.28,0,0,1-.19,0,.22.22,0,0,1-.15,0l-.07-.08a.54.54,0,0,0-.23-.11l-.31-.23a3.17,3.17,0,0,0-.38-.23s-.07-.11-.15-.19-.11-.15-.15-.19a.73.73,0,0,0-.11-.15s-.08-.08-.08-.12a.27.27,0,0,0,0-.15,1.36,1.36,0,0,0-.23-.38,1.34,1.34,0,0,0-.19-.23.72.72,0,0,1-.11-.22v-.76A1.36,1.36,0,0,0,143,27V25.76s0-.16.08-.35.08-.3.08-.34a.82.82,0,0,0,0-.23v-.26s.08-.08.08-.12v-.15a.51.51,0,0,0,0-.26v-.69a.28.28,0,0,1,0-.19v-.8a.62.62,0,0,1,0-.22s0-.12,0-.23v-.5a.12.12,0,0,0,0-.11c0-.15,0-.23,0-.26v-.31l.22-.34v-.61l.12-.11a.15.15,0,0,0,0-.12v-.22a.19.19,0,0,1,.07-.12.68.68,0,0,0-.07-.38v-.11c0-.08,0-.12,0-.15l.12-.12a.14.14,0,0,0,0-.11V18.2a.72.72,0,0,1,0-.27C143.84,17.82,143.8,17.74,143.8,17.7Zm.57-4.25-.23-.16a.19.19,0,0,0,.12-.07.26.26,0,0,1,.19-.08s.07,0,.07,0,0-.07.08-.11,0-.11,0-.23l.23-.23c.11,0,.15-.07.15-.11v0a.08.08,0,0,1,.07-.07s0-.08.08-.12l.08-.07a.83.83,0,0,1,.07-.27.5.5,0,0,1,.19-.19c0-.11,0-.15.12-.15s.07-.12.11-.19.07-.12.11-.12a.08.08,0,0,0,.08-.07L146,11a.12.12,0,0,0,0-.11s0-.08.08-.11l.11-.12a.4.4,0,0,1,0-.19.26.26,0,0,0,0-.15.15.15,0,0,1,.07-.11l.34-.35V9.68a.79.79,0,0,0,.12-.38.15.15,0,0,0,.07-.11s0-.08,0-.08.12-.3.19-.3,0,0,0,0h.08c0-.08.11-.15.19-.15h.19c0-.08.22-.19.3-.19a.17.17,0,0,0,.11,0,.2.2,0,0,0,.16-.07h.15c0,.07.07.07.11.07a.33.33,0,0,0,.23.08.2.2,0,0,1,.08.15.17.17,0,0,0,.07.15s0,.08,0,.16,0,.11,0,.15,0,.07,0,.15,0,.11,0,.15v.23s.07,0,.11.08.08.07.12.07.15,0,.15.15.19.27.23.27l.11.11a.41.41,0,0,1,.11.16v.22a.55.55,0,0,1,.16.12l.11.11a.12.12,0,0,1,.11,0c.08.08.12.15.16.19l.11.11a.14.14,0,0,0,.11,0l.12.23a.48.48,0,0,0,.11.15,4.5,4.5,0,0,0,.34.38l.27.27.19.15.11.15s0,0,0,0h.15l.12.11a.13.13,0,0,0,.11,0l.15.08a.15.15,0,0,0,.12,0s.07,0,.15.07a.86.86,0,0,1,.11.31c0,.07,0,.11-.15.11a.13.13,0,0,0-.11,0,.15.15,0,0,1-.12,0h0a.15.15,0,0,1-.12,0h-.23s0,0-.11,0a.14.14,0,0,0-.11,0h-.95a.18.18,0,0,1-.12,0l-.19-.12a.38.38,0,0,1-.19-.11l-.11-.12s-.08,0-.15,0,0-.07,0-.07,0,0,0-.08-.08-.15-.11-.15a.57.57,0,0,1-.27.07,1.19,1.19,0,0,1-.27-.38.2.2,0,0,0-.07-.11c-.08,0-.12-.08-.12-.11s0-.08-.11-.12h0c-.07,0-.23-.19-.23-.23l-.11-.11c-.11,0-.15-.08-.15-.11a.59.59,0,0,1-.23-.12.14.14,0,0,0-.11,0v-.15s-.08,0-.12-.07l-.07-.08a1.59,1.59,0,0,1-.23.08.18.18,0,0,0-.12,0s-.07.08-.11.19a.18.18,0,0,1-.19.19.12.12,0,0,1-.08,0c-.07,0-.11.08-.11.15a.15.15,0,0,1,0,.12l-.11.11s-.08,0-.12.12a.45.45,0,0,1-.11.15.13.13,0,0,0,0,.11s0,.08-.07.12a2.42,2.42,0,0,0-.76.3l-.12.11a.12.12,0,0,1-.11,0,.12.12,0,0,0-.11,0s0,.11,0,.23a.19.19,0,0,1-.12.07s0,0,0,.12a.15.15,0,0,0-.12,0,.15.15,0,0,1-.11,0c-.08,0-.19.16-.19.23v.08s0,0-.12,0l-.11-.12h-.23v-.34a.14.14,0,0,1,0-.11l0,0S144.37,13.56,144.37,13.45Zm7.83,15.61v-.68l-.19.38s0-.12,0-.23a1,1,0,0,0,0-.34,1,1,0,0,1,0-.34v-.31a1.68,1.68,0,0,1,.42-.8v-.22a.38.38,0,0,0,0-.19,1,1,0,0,1,0-.31.13.13,0,0,0,0-.11l-.08-.15a.63.63,0,0,0-.11-.19v-.23a.47.47,0,0,1,0-.23.72.72,0,0,0,0-.27c0-.19-.07-.38-.11-.53a4.53,4.53,0,0,1-.11-.49s0-.08.15-.12a.19.19,0,0,0,.15-.19.56.56,0,0,0-.19-.34l-.42-1.1a2.78,2.78,0,0,1,.08-.46,2.49,2.49,0,0,0,.07-.45.14.14,0,0,0,0-.11,1.18,1.18,0,0,1-.12-.42c0-.19-.07-.31-.15-.35s-.11-.11-.11-.22a.54.54,0,0,0-.12-.23.68.68,0,0,1-.11-.34v-.88a.35.35,0,0,0-.12-.23.37.37,0,0,1-.11-.18V18s0-.08.08-.12a1.28,1.28,0,0,0,.07-.26v-.12s0-.07-.11-.07h-.27s-.07,0-.15,0h-.15a.48.48,0,0,1-.23-.11,1.68,1.68,0,0,0-.34-.15,1.26,1.26,0,0,1-.23-.08,1,1,0,0,0-.34-.07h-.88a1.13,1.13,0,0,1-.3,0h-1.14a.68.68,0,0,0-.3,0c-.12,0-.19,0-.19,0s0,.08-.08.12l-.27.15a1,1,0,0,0-.26.15c-.11,0-.19,0-.23,0l-.34.08-.08.23a.56.56,0,0,0,0,.22,2.51,2.51,0,0,1,.07.5V19a.37.37,0,0,1,0,.18.39.39,0,0,0,0,.16l.07.26a.33.33,0,0,0-.07.23.89.89,0,0,0,.07.27v1.52a.43.43,0,0,1,0,.22V22s0,.12,0,.23a1.41,1.41,0,0,1-.07.5v1a1.53,1.53,0,0,0,.26.68,1,1,0,0,0,.15.23.28.28,0,0,0,0,.19.25.25,0,0,1-.11.23c-.08,0-.12.07-.12.11v1.06a3.45,3.45,0,0,0,0,.54,3.83,3.83,0,0,1-.08.57,2.61,2.61,0,0,0,.11.45c0,.08.08.12.08.15s0,.08.11.16a.62.62,0,0,1,.19.34v.42c.23,0,.27.19.27.37s.11.31.19.31.11,0,.11.15.34.31.46.31.15,0,.15.11,0,.08.11.11a.62.62,0,0,1,.19.12c0,.11,0,.15.12.15h.45v.08h.88a1.79,1.79,0,0,0,.49-.08,2.81,2.81,0,0,1,.31-.08,6.83,6.83,0,0,1,.68-.07,2.62,2.62,0,0,1,.46-.08,1.47,1.47,0,0,0,.34-.07.8.8,0,0,1,.34.11.8.8,0,0,0,.38.11,2.35,2.35,0,0,0,.19-.3.38.38,0,0,1,.23-.19V29.4c.11,0,.15,0,.15-.15A.27.27,0,0,1,152.2,29.06Zm-.76-19-.31-.23s0,0,0-.08a.56.56,0,0,1,.07-.19.5.5,0,0,0,.08-.26.15.15,0,0,1,0-.12s.07-.07.07-.11l.08-.23a.19.19,0,0,0,.15-.19c0-.08,0-.11.08-.11a.39.39,0,0,0,.11-.27c.11-.11.19-.19.19-.23s.08-.11.23-.23.23-.22.23-.3a.31.31,0,0,1,.11-.23.8.8,0,0,0,.19-.23l.15-.11c0-.11.08-.19.12-.19s.19-.23.22-.3a1.59,1.59,0,0,0,.08-.23.39.39,0,0,0,.27-.11l.15-.16c0-.11,0-.19,0-.23h.07l0,0s0-.08.08-.12a.68.68,0,0,0,.19-.11l.22-.12a.65.65,0,0,1,.12-.15.39.39,0,0,0,.11-.15c0-.08.34-.38.42-.42l.11-.11a.54.54,0,0,1,.23-.11l.12-.12s.07-.08.11-.08a.15.15,0,0,0,.11-.07S156,4,156,3.91l.23-.23a.56.56,0,0,1,.23.46.23.23,0,0,0,.11.23.37.37,0,0,1,.15.11l-.07.3a.12.12,0,0,0,.11,0,.12.12,0,0,1,.11,0L157,5l0,.38a.47.47,0,0,1-.11.31.32.32,0,0,0-.12.26s-.11.12-.34.23a1.72,1.72,0,0,0-.49.34.37.37,0,0,0-.23.15,2.7,2.7,0,0,1-.15.27.14.14,0,0,0,0,.11v0c-.19,0-.27.08-.23.08h-.11c-.08,0-.12,0-.12.11s0,.08-.07.12a.48.48,0,0,0-.19.11s-.08,0-.16.11a.77.77,0,0,1-.22.16.63.63,0,0,0-.46.15c-.11,0-.19.07-.19.11s0,.08-.11.12a.41.41,0,0,0-.16.11.93.93,0,0,0-.22.19.26.26,0,0,0-.19.08c-.12,0-.19,0-.19.11s-.08.11-.23.23-.15.11-.34.3l-.35.34v.08l-.11.11a.15.15,0,0,0,0,.12.08.08,0,0,0-.07.07v0s0,0-.12.08A.13.13,0,0,1,151.44,10Z"/><path class="cls-2" d="M172.11,15.12s0,0,0-.08-.07-.11-.07-.15a.29.29,0,0,1,.15-.27.7.7,0,0,0,.23-.22h.26a1,1,0,0,0,.27-.08.66.66,0,0,1,.45.11,2.37,2.37,0,0,0,.42.27h.53c.61.08.65.34.73.91l.19.19a2,2,0,0,0,.3.23.76.76,0,0,1,.42.61c0,.11.07.23.11.38s.08.26.12.38c0,.34.07.61.11.83s.08.53.11.91c-.07.65-.11,1.3-.15,1.94L176.14,23c0,.19-.08.34-.12.49l-.11.46v.15a1,1,0,0,0,.08.27.51.51,0,0,0,0,.26,1.11,1.11,0,0,1-.08.35.44.44,0,0,1,.12.34l-.12.34V26a.19.19,0,0,0-.07.12s0,.07-.08.11a1,1,0,0,0-.15.49v.5a.59.59,0,0,1-.12.34,1,1,0,0,0,0,.34.73.73,0,0,1,0,.27.48.48,0,0,0-.11.23.77.77,0,0,1-.08.19.42.42,0,0,0,0,.19.68.68,0,0,1,0,.3,1.91,1.91,0,0,1-.08.34,1,1,0,0,0,0,.34c-.08.46,0,.92-.08,1.37V32c0,.16,0,.27-.11.31a.81.81,0,0,0,0,.34v.91a.15.15,0,0,0,0,.12l.07.15a1.43,1.43,0,0,0,.12.64,1.14,1.14,0,0,1,.11.46,8.22,8.22,0,0,0,2.81,4.18l.53.46.23.11a1.58,1.58,0,0,0,.31.11l.22.23s-.11.08-.34.08-.19,0-.23,0a2.64,2.64,0,0,0-.6-.19l-.92-.65a.84.84,0,0,1-.49-.45.65.65,0,0,0-.34-.38c-.15-.08-.65-.27-.65-.46v-.23a.89.89,0,0,1-.45-.41c-.12-.19-.19-.35-.27-.46a.83.83,0,0,1-.07-.27.92.92,0,0,0-.08-.26,1.22,1.22,0,0,1-.15-.19l-.08-.08a.65.65,0,0,0-.11-.34l-.19-.42a1,1,0,0,1-.15-.23,1.58,1.58,0,0,0-.16-.22.55.55,0,0,1,.08-.19.58.58,0,0,0,.08-.23.64.64,0,0,0-.23-.31.32.32,0,0,1-.15-.3l-.12-.34a.73.73,0,0,1,0-.27,3.61,3.61,0,0,1,0-.68,3.88,3.88,0,0,0-.08-.8,2.59,2.59,0,0,0,0-.49,4.17,4.17,0,0,1,0-.72,5.62,5.62,0,0,0,0-.73,2.86,2.86,0,0,1,0-.53v-.68s0,0,0-.08v-.38c0-.07,0-.11,0-.15l.26-.23a.36.36,0,0,1-.07-.23v-.83l.07-.84a6.34,6.34,0,0,0,0-.91,7,7,0,0,0,.08-.91,7.85,7.85,0,0,1,.07-.88,1,1,0,0,0,.08-.34V22l.11-.3a.71.71,0,0,0,0-.3V19.07a.33.33,0,0,1,.08-.23.31.31,0,0,0,.07-.23v-.38a.68.68,0,0,1,0-.26.55.55,0,0,0,0-.27v-1l-.34-.34a.81.81,0,0,1-.23-.45s0-.12,0-.23l-.23.23a1.31,1.31,0,0,0-.34.19.83.83,0,0,1-.45.11,1.33,1.33,0,0,0-.61.23,1.37,1.37,0,0,1-.61.22,3.54,3.54,0,0,0-.95.16,1.84,1.84,0,0,1-.34.11H170a.21.21,0,0,0-.19-.11.58.58,0,0,1-.23-.08h-.22a.75.75,0,0,1-.46.27h-.53v.8a.14.14,0,0,1,0,.11.14.14,0,0,0,0,.11.3.3,0,0,0,0,.16.17.17,0,0,1,0,.11c0,.11,0,.19,0,.23a1.37,1.37,0,0,0-.08.49.71.71,0,0,0,0,.27.9.9,0,0,1,0,.26.61.61,0,0,0-.12.34,1,1,0,0,0-.11.38v.65a2,2,0,0,1-.19.61V22a1.45,1.45,0,0,1-.19.31,4.25,4.25,0,0,1-.23.95l-.11.34a1,1,0,0,0,0,.34v.42a1,1,0,0,1,0,.34.68.68,0,0,1-.11.38,1.48,1.48,0,0,0-.16.34.49.49,0,0,0,.08.23.53.53,0,0,1,.08.23v.42a.51.51,0,0,0,0,.26c0,.12,0,.19,0,.23v.53s-.08.08-.08.12a.13.13,0,0,0,0,.11.15.15,0,0,1,0,.12.14.14,0,0,1,0,.11.14.14,0,0,0,0,.11.45.45,0,0,0,0,.23.73.73,0,0,1,0,.31v.38a.12.12,0,0,1,0,.11v.87a.29.29,0,0,1,.07.19,1.11,1.11,0,0,0,.08.35v.26s0,.08.08.12c.19,0,.26,0,.26.07,0,.19,0,.49-.26.49l-.35-.07a1,1,0,0,1-.15-.23.62.62,0,0,0-.23-.23,2.22,2.22,0,0,1-.26-.79,2.76,2.76,0,0,0-.23-.77.87.87,0,0,0-.11-.22.68.68,0,0,1-.12-.23V27.54s0-.11,0-.23a1.9,1.9,0,0,1,0-.45v-.38l-.12-.12a.12.12,0,0,1,0-.11.56.56,0,0,1-.07-.3.93.93,0,0,1,.07-.35v-.34a1.05,1.05,0,0,1,.08-.34v-.3s0-.08.08-.12.07-.07.07-.11V23.1a4.66,4.66,0,0,1,.08-.61.73.73,0,0,1,0-.31.56.56,0,0,0,0-.22v-.19s0-.08.08-.12,0-.07.08-.11l.11-.12a1.44,1.44,0,0,1,0-.45v-.38a.75.75,0,0,1-.07-.34,1.69,1.69,0,0,1,0-.46v-.27a.92.92,0,0,1,.08-.26v-1a.58.58,0,0,1,.08-.23.62.62,0,0,0,.07-.26V16.07a1.85,1.85,0,0,0,.08-.46V13.79a.47.47,0,0,1,0-.23.61.61,0,0,0,0-.23.15.15,0,0,0,0-.11.15.15,0,0,1,0-.12.14.14,0,0,1,0-.11.17.17,0,0,0,0-.11V10.82a.14.14,0,0,1,0-.11v-.08s0-.11,0-.19V10.1c0-.07,0-.11,0-.15a.31.31,0,0,1-.08-.23s.08-.07.08-.11a.15.15,0,0,1,0-.12l-.12-.11s-.07-.08-.07-.11A.57.57,0,0,1,166,9V8.77a1.26,1.26,0,0,0,.08-.23V8.43l0-.11a.38.38,0,0,0,0-.19.42.42,0,0,1,0-.19s0-.08,0-.23a.15.15,0,0,0,0-.12V7.48c-.07,0-.11,0-.15-.08s0-.07,0-.15,0-.11,0-.15a.48.48,0,0,0-.19-.11V6.8a.49.49,0,0,0,0-.19s0-.08-.12-.08-.11,0-.11-.07,0-.12,0-.16a.15.15,0,0,1,0-.11c.12-.08.16-.11.16-.15a5.42,5.42,0,0,0,.57-.27s.11,0,.19,0a.36.36,0,0,1,.19.07c.11.08.19.12.19.08a.53.53,0,0,1,.22.12.85.85,0,0,0,.16.11.66.66,0,0,0,.26.15.59.59,0,0,1,.23.12,1.18,1.18,0,0,0,.15.11c.08.07.12.11.15.11s0,.08.08.16S168,7,168,7a.2.2,0,0,0,.07.11s.08.08.08.11a.15.15,0,0,0,0,.12.15.15,0,0,1,0,.11.33.33,0,0,1,.08.23s0,.08.11.08a.2.2,0,0,1,.16.07.19.19,0,0,0,.07.12l.08.07v.15a.36.36,0,0,0,.07.23.18.18,0,0,1,0,.12.12.12,0,0,0,0,.11.35.35,0,0,0,.11.23V9.3a.15.15,0,0,1,0,.12v.19s0,.07,0,.07,0,.12.15.23a.3.3,0,0,0-.08.19v.15s0,.08.08.12.08.07.08.11a2,2,0,0,1,0,.46v.15c0,.19.08.3.08.34a.15.15,0,0,1,0,.12.42.42,0,0,0,0,.19.3.3,0,0,1,.07.19v.19a.14.14,0,0,1,0,.11.17.17,0,0,0,0,.11c0,.08,0,.16,0,.19a.28.28,0,0,1,0,.19V13.9a1.79,1.79,0,0,1,0,.46l-.07.45.87.08a1,1,0,0,1,.34.08l.35.11h1A.63.63,0,0,1,172.11,15.12Zm1.44-.46-1.17.5a4.69,4.69,0,0,0,1.21-.19S173.55,14.81,173.55,14.66Z"/><path class="cls-2" d="M181,17.7v-.27l-.15.2v.11l-.07,0-.12.12a.12.12,0,0,0,0-.08.12.12,0,0,1,0-.08l0,0,.07-.07,0-.23.19-.35a.41.41,0,0,1,.16-.34,1.15,1.15,0,0,0,.38-.22,1.19,1.19,0,0,1,.26-.23.89.89,0,0,0,.34-.23,1.21,1.21,0,0,1,.23-.19,2.61,2.61,0,0,1,.46-.34.13.13,0,0,0,.11,0,.15.15,0,0,1,.12,0,.42.42,0,0,0,.19,0,.51.51,0,0,0,.22-.11,1.32,1.32,0,0,1,.35-.15,1.44,1.44,0,0,1,.45.11,1.25,1.25,0,0,0,.46.12,1.3,1.3,0,0,1,.41,0,1.33,1.33,0,0,0,.42,0,2.1,2.1,0,0,1,.46.11,1.81,1.81,0,0,0,.57.12H187a1,1,0,0,0,.35,0,.62.62,0,0,0,.22,0,1,1,0,0,1,.35.23.46.46,0,0,0,.22.15.09.09,0,0,0,.08-.08.08.08,0,0,1,.08-.07h.11a.38.38,0,0,1,.34.19c.19.41.91.57,1.33.57a1.29,1.29,0,0,1,.19.41,1,1,0,0,0,.23.42s0,.08,0,.15a.39.39,0,0,0,.15.27l.19.19a.66.66,0,0,0,.08.3l.11.23v.23a.39.39,0,0,0,.11.27.46.46,0,0,0,.16.34l.34.34a3.7,3.7,0,0,0,.07.57l.12.57c.11.34.23.64.34.95a4.13,4.13,0,0,1,.23.95.27.27,0,0,0,0,.15.61.61,0,0,1,0,.23v3h-.15a.47.47,0,0,0,0,.23v.23h0s0,0,0,.11,0,.19,0,.23l-.11.11c0,.12-.23.27-.35.27a.14.14,0,0,1-.11,0h-.08s-.07.08-.07.23a1,1,0,0,1,.07.23v.11l-.11.12a1.3,1.3,0,0,0-.19.15.8.8,0,0,1-.23.38l-.11.11s-.08.08-.12.08-.19.07-.22.15a.15.15,0,0,0-.12,0l-.15.07c-.08,0-.11,0-.15.12a.7.7,0,0,1-.23.22l.27.27a.53.53,0,0,0,.22.12l.27.15a.52.52,0,0,1,.27.3,1.14,1.14,0,0,0,.38,0v.12s0,.07.07.11v.23s-.07.08-.11.08a.18.18,0,0,0-.12,0h-.34a.85.85,0,0,1-.34.23h-1.25c-.12.11-.19.19-.23.19a.15.15,0,0,0-.12,0,.14.14,0,0,1-.11,0,1.26,1.26,0,0,0-.23-.08.15.15,0,0,0,0,.12c0,.08-.07.11-.22.11h-.23a.15.15,0,0,0-.12,0,.44.44,0,0,1-.22.11h-.35a.86.86,0,0,1-.3,0h-.45a1.12,1.12,0,0,0-.42,0l-.08.08a.13.13,0,0,1-.11,0,.72.72,0,0,0-.27,0,.26.26,0,0,1-.15,0h-.27c-.11,0-.19,0-.23,0a.72.72,0,0,0-.22-.11.92.92,0,0,0-.38,0h-.23s-.08,0-.15,0a.62.62,0,0,1-.38-.15,1.36,1.36,0,0,0-.38-.23,1.41,1.41,0,0,1-.23-.19l-.15-.19h-.12a.43.43,0,0,0-.22,0c-.08,0-.16,0-.19,0s-.12,0-.16,0l-.07-.08a.54.54,0,0,0-.23-.11l-.3-.23a4.23,4.23,0,0,0-.38-.23s-.08-.11-.16-.19-.11-.15-.15-.19a.48.48,0,0,0-.11-.15s-.08-.08-.08-.12a.27.27,0,0,0,0-.15,1.29,1.29,0,0,0-.22-.38c-.08-.11-.16-.19-.19-.23a.53.53,0,0,1-.12-.22v-.76a1.71,1.71,0,0,0-.07-.46V25.76s0-.16.07-.35.08-.3.08-.34a.63.63,0,0,0,0-.23v-.26s.07-.08.07-.12v-.15a.51.51,0,0,0,0-.26v-.69a.28.28,0,0,1,0-.19v-.8a.62.62,0,0,1,0-.22s0-.12,0-.23v-.5a.12.12,0,0,0,0-.11c0-.15,0-.23,0-.26v-.31l.23-.34v-.61l.11-.11a.15.15,0,0,0,0-.12v-.22s0-.08.07-.12a.68.68,0,0,0-.07-.38v-.11c0-.08,0-.12,0-.15l.11-.12a.14.14,0,0,0,0-.11V18.2a.55.55,0,0,1,0-.27C181,17.82,181,17.74,181,17.7Zm8.4,11.36v-.68l-.19.38s0-.12,0-.23a1,1,0,0,0,0-.34,1.34,1.34,0,0,1,0-.34v-.31a1.66,1.66,0,0,1,.41-.8v-.22a.49.49,0,0,0,0-.19.73.73,0,0,1,0-.31.13.13,0,0,0,0-.11l-.08-.15a.48.48,0,0,0-.11-.19v-.23a.47.47,0,0,1,0-.23.55.55,0,0,0,0-.27c0-.19-.08-.38-.12-.53s-.07-.3-.11-.49c0,0,0-.08.15-.12a.19.19,0,0,0,.15-.19.52.52,0,0,0-.19-.34l-.42-1.1a2.78,2.78,0,0,1,.08-.46,2.69,2.69,0,0,0,.08-.45.12.12,0,0,0,0-.11,1.18,1.18,0,0,1-.12-.42c0-.19-.07-.31-.15-.35a.22.22,0,0,1-.11-.22.54.54,0,0,0-.12-.23.68.68,0,0,1-.11-.34v-.88a.37.37,0,0,0-.11-.23.34.34,0,0,1-.12-.18V18s0-.08.08-.12a.85.85,0,0,0,.07-.26v-.12s0-.07-.11-.07h-.27s-.07,0-.15,0h-.15a.53.53,0,0,1-.23-.11,1.68,1.68,0,0,0-.34-.15,1.59,1.59,0,0,1-.23-.08,1,1,0,0,0-.34-.07h-.87a1.24,1.24,0,0,1-.31,0H184a.71.71,0,0,0-.3,0c-.11,0-.19,0-.19,0s0,.08-.08.12a1.62,1.62,0,0,1-.26.15,1.09,1.09,0,0,0-.27.15c-.11,0-.19,0-.23,0l-.34.08-.07.23a.43.43,0,0,0,0,.22,2,2,0,0,1,.07.5V19a.47.47,0,0,1,0,.18.3.3,0,0,0,0,.16l.07.26a.39.39,0,0,0-.07.23,1.35,1.35,0,0,0,.07.27v1.52a.43.43,0,0,1,0,.22V22s0,.12,0,.23a1.21,1.21,0,0,1-.07.5v1a1.53,1.53,0,0,0,.26.68.8.8,0,0,0,.16.23.36.36,0,0,0,0,.19.23.23,0,0,1-.11.23c-.08,0-.11.07-.11.11v1.06a2.6,2.6,0,0,0,0,.54,3.83,3.83,0,0,1-.08.57,1.78,1.78,0,0,0,.12.45c0,.08.07.12.07.15s0,.08.12.16a.78.78,0,0,1,.19.34v.42c.22,0,.26.19.26.37s.12.31.19.31.12,0,.12.15.34.31.45.31.15,0,.15.11,0,.08.12.11a1,1,0,0,1,.19.12c0,.11,0,.15.11.15h.46v.08h.87a1.94,1.94,0,0,0,.5-.08,2.87,2.87,0,0,1,.3-.08,6.83,6.83,0,0,1,.68-.07,2.62,2.62,0,0,1,.46-.08,1.37,1.37,0,0,0,.34-.07.76.76,0,0,1,.34.11.8.8,0,0,0,.38.11,2.35,2.35,0,0,0,.19-.3.41.41,0,0,1,.23-.19V29.4c.11,0,.15,0,.15-.15A.27.27,0,0,1,189.36,29.06Zm-4.22,4,.27-.23a1.07,1.07,0,0,1,.38-.07.45.45,0,0,1,.23,0,.13.13,0,0,0,.11,0l.23.15a1.28,1.28,0,0,1,.23.19.78.78,0,0,0,.19.12.45.45,0,0,1,.15.11l.61.61c.07.07.11.11.11.15s.08,0,.11.15a.59.59,0,0,0,.12.23.48.48,0,0,0,.11.15s.08.08.08.12a.15.15,0,0,1,.07.11s0,.08.08.11v.12c0,.11,0,.19,0,.23V36a1.59,1.59,0,0,0-.08.23.65.65,0,0,0-.15.34s-.11,0-.27,0a.81.81,0,0,1-.34,0h-1.17l-.12-.11a.83.83,0,0,1-.23-.38c0-.11-.07-.15-.11-.15s0,0,0,.07v0s-.07-.07-.11-.07-.08,0-.12-.08a2.1,2.1,0,0,0-.26-.53A2.37,2.37,0,0,1,185,35s0-.11,0-.23a1.22,1.22,0,0,0-.22-.19.27.27,0,0,1-.16-.23c.08,0,.12,0,.16-.07v0l-.08-.08a.12.12,0,0,1,0-.11v-.38s.08-.07.08-.11l.38-.38A.09.09,0,0,1,185.14,33.09Z"/><path class="cls-2" d="M195.25,30.09a3.79,3.79,0,0,0-.45-.38,4.1,4.1,0,0,1-.42-.34v-.23c0-.53.26-1.18.87-1.18.12,0,.19,0,.23,0a5.07,5.07,0,0,0,1.33.38c0-.11.08-.23.11-.34l.12-.34a.39.39,0,0,1,.11-.15.15.15,0,0,0,0-.12l-.11-.11a.15.15,0,0,1,0-.12,2,2,0,0,0,.23-.57c0-.19.07-.41.11-.68l.11-1.25.12-1.26a18.75,18.75,0,0,0-.69-4.06c-.11-.42-.26-.88-.42-1.37,0-.08-.07-.15-.11-.27s-.08-.23-.11-.34a4.53,4.53,0,0,1-.46-.11.92.92,0,0,0-.26-.08h-.31a2.38,2.38,0,0,0-.38-1.14.94.94,0,0,1,.31,0h.26a.26.26,0,0,0,.08-.19.24.24,0,0,1,.07-.15l.12-.11a.59.59,0,0,1,.23-.12,2.78,2.78,0,0,1,.79.16l.73-.23c.53-.19,1.1-.31,1.63-.46a3.41,3.41,0,0,1,.68-.11.48.48,0,0,1,.31-.08,2.34,2.34,0,0,0,.45-.07h.53a1.52,1.52,0,0,1,.5.07s.07,0,.15,0a.28.28,0,0,0,.19-.08s.08-.07.11-.07a.76.76,0,0,1,.19.07.71.71,0,0,0,.31.08s.07,0,.15,0h.27a.94.94,0,0,1,.57.12,1.47,1.47,0,0,0,.34.15h1c.35.11.54.23.57.34a3.18,3.18,0,0,0,.57.19,2.7,2.7,0,0,1,1.52,1.18,1,1,0,0,1,.27.57.62.62,0,0,1-.15.34V18a.92.92,0,0,0-.19.22.62.62,0,0,1-.23.23l-.11-.11a.21.21,0,0,0-.16-.08c-.11,0-.53.53-.57.65a.74.74,0,0,0-.15.45.78.78,0,0,1-.34.53c0-.07-.11-.15-.19-.26a.48.48,0,0,1-.11-.27c-.08-.45-.16-.91-.23-1.36,0-.12-.08-.27-.12-.42s-.07-.31-.11-.46a1.83,1.83,0,0,1,0-.46,1.87,1.87,0,0,0,0-.49V16h-.61a2.93,2.93,0,0,0-.61,0,2.13,2.13,0,0,0-.53-.07c-.08,0-.15.07-.27.22a2.2,2.2,0,0,0-.53,0,.39.39,0,0,0-.3.23.39.39,0,0,1-.27-.15c-.11-.12-.19-.15-.23-.15,0,.45-.91.64-1.29.72-.19,0-.3,0-.34,0a.35.35,0,0,0-.19.11.64.64,0,0,1-.31.15,3.36,3.36,0,0,0-.76.27.46.46,0,0,0-.3-.07.52.52,0,0,0-.19,0l-.19.08a1.32,1.32,0,0,0,.23.46,1.35,1.35,0,0,1,.3.76.56.56,0,0,0,.19.34,1,1,0,0,0,.19.3,1,1,0,0,1,.19.23.54.54,0,0,1,.12.23,1.18,1.18,0,0,0,.07.22c0,.12.12.27.19.46a1.25,1.25,0,0,1,.12.46,2.54,2.54,0,0,0,.19.57c.07.19.15.34.19.45a1.86,1.86,0,0,1-.19.91c.19,0,.3.08.3.27v1.37a1.05,1.05,0,0,0,.08.34v.65a.73.73,0,0,1-.16.53l-.22.07s-.08,0-.12.08a.66.66,0,0,1,.15.49.29.29,0,0,1-.11.19c-.08.08-.11.12-.11.16a1.73,1.73,0,0,1-.08.38,3.38,3.38,0,0,0-.11.34l-.12.34c-.11.34-.23.65-.34.91l-.19.19a.28.28,0,0,0,.19.08h.49a19.83,19.83,0,0,1,2.21.15h.72a.8.8,0,0,1,.38.08,3.15,3.15,0,0,0,.57,0,.94.94,0,0,1,.53.12.59.59,0,0,0,.23-.12.36.36,0,0,1,.23-.07,1.14,1.14,0,0,1,.38,0l.34.11h.3c1.07.08,2.13.15,3.2.27l-.12.11a.14.14,0,0,0,0,.11h-.41a.3.3,0,0,1-.19.08.26.26,0,0,0-.19.08.33.33,0,0,0-.23-.08c-.12,0-.19,0-.23,0l-.57.12-.42.07a4.53,4.53,0,0,1-.72,0,5.92,5.92,0,0,0-.8,0,3.07,3.07,0,0,1-1,.23h-.3l-.57.11a2.73,2.73,0,0,1-.57,0,2.47,2.47,0,0,1-.46.15.85.85,0,0,0-.3.11h-.42a3,3,0,0,0-.57.16l-.45.15a1.33,1.33,0,0,1-.65-.19,2.45,2.45,0,0,0-.3.11,1.31,1.31,0,0,1-.35.11.66.66,0,0,1-.26,0,.4.4,0,0,0-.19,0h-1.06a.51.51,0,0,1-.35-.11.72.72,0,0,0-.3-.16,1,1,0,0,0-.31-.22.45.45,0,0,1-.19-.23s-.07-.12-.11-.19a.79.79,0,0,0-.11-.19,1,1,0,0,0-.27-.42Z"/></g></g><g id="Layer_2-2" data-name="Layer 2"><g id="OBJECTS"><g id="Path_11150" data-name="Path 11150"><path class="cls-2" d="M8.42,36.92a.27.27,0,0,0-.09-.12c-.31-.23-.64-.43-.94-.67s-.59-.51-.88-.78a.27.27,0,0,1-.09-.12,19.66,19.66,0,0,0,12.83,4.19,18.55,18.55,0,0,0,8.94-2.59L28,36.9c-.82.38-1.63.79-2.46,1.13a17,17,0,0,1-1.95.63,14.89,14.89,0,0,1-1.76.38c-.64.1-1.29.16-1.94.21-.46,0-.93,0-1.4,0a19,19,0,0,1-2.5-.19,15.69,15.69,0,0,1-2.25-.44,20.89,20.89,0,0,1-3.24-1.17A19.36,19.36,0,0,1,8,36.12a16.72,16.72,0,0,1-1.8-1.33,22.46,22.46,0,0,1-1.82-1.7A3.74,3.74,0,0,1,4,32.54a1.86,1.86,0,0,1-.25-.43L4,32.4l0,0L3.84,32l-.26-.41h0l.15.09,0,0,.1.16h0l.09.09h0l.14.18h0l.11.1.06.06.09.1.09.1h0l.65.64c.35.34.68.7,1,1s.83.7,1.26,1,1,.67,1.46,1,1.12.64,1.7.92a17.44,17.44,0,0,0,1.73.71,15.65,15.65,0,0,0,1.8.56c.74.18,1.49.32,2.24.43a16.81,16.81,0,0,0,3.4.13,15.27,15.27,0,0,0,2.6-.32l.54-.09v0l-.15,0L21,38.54c-.55.05-1.11.09-1.66.15a8.58,8.58,0,0,1-1.6.08c-.7-.06-1.4-.14-2.09-.24a14,14,0,0,1-2.8-.71A19.33,19.33,0,0,1,10,36.59a21,21,0,0,1-2.16-1.34,19.32,19.32,0,0,1-2-1.7,18.22,18.22,0,0,1-1.68-1.83A20.54,20.54,0,0,1,2.88,30a14.69,14.69,0,0,1-1.1-2c-.23-.47-.42-1-.63-1.45a17.33,17.33,0,0,1-.74-2.35,12.69,12.69,0,0,1-.25-1.37A17.44,17.44,0,0,1,0,20a.09.09,0,0,1,0-.06v.42a13,13,0,0,0,.2,2,21.93,21.93,0,0,0,.61,2.64,17.2,17.2,0,0,0,.92,2.48c.16.34.32.68.49,1a.69.69,0,0,0,.11.13l0,.09,0,.09a1.39,1.39,0,0,0,.36.62l.13.22.09.14,0,.09,0,0L3,29.73,3,29.6a.24.24,0,0,0-.14-.23l-.35-.62,0-.09,0-.09c0-.05,0-.1,0-.14A16.75,16.75,0,0,1,1,25.19C.88,24.66.75,24.13.62,23.6a.41.41,0,0,1,0-.22c.25.6.38,1.24.62,1.84A31.79,31.79,0,0,1,.68,22,17.42,17.42,0,0,1,.59,18.8c0,.41,0,.83,0,1.24s.08,1,.12,1.48a17.71,17.71,0,0,0,.5,2.71A18.67,18.67,0,0,0,2,26.66a19,19,0,0,0,1.16,2.4,20.76,20.76,0,0,0,1.48,2.13,17.11,17.11,0,0,0,1.77,1.94A17.64,17.64,0,0,0,8.6,34.91,19.15,19.15,0,0,0,11,36.33c.58.28,1.19.51,1.79.74a11.65,11.65,0,0,0,2.39.68c.65.12,1.31.21,2,.3a15.11,15.11,0,0,0,2.42.09c.47,0,.94,0,1.4-.1s1.1-.16,1.64-.27a17.67,17.67,0,0,1-6.36-.2c.34,0,.67.09,1,.12a4,4,0,0,0,1,0l-.6-.06A17.74,17.74,0,0,1,15,37.18a18.85,18.85,0,0,1-3.16-1.12A14.59,14.59,0,0,1,9.36,34.7c-.52-.36-1-.73-1.54-1.13A14.82,14.82,0,0,1,6.1,31.93c-.31-.37-.64-.72-.94-1.1a14,14,0,0,1-1.42-2.15A17.41,17.41,0,0,1,2.58,26a16.79,16.79,0,0,1-.66-2.6c-.1-.53-.15-1.06-.21-1.59A9.83,9.83,0,0,1,1.62,20c0-.59.07-1.17.15-1.75s.23-1.39.37-2.08A12.34,12.34,0,0,1,2.79,14a17.46,17.46,0,0,1,1.12-2.4,17.07,17.07,0,0,1,2.17-3A18.45,18.45,0,0,1,8.82,6.08a17,17,0,0,1,7-2.95q.91-.15,1.83-.21a14.6,14.6,0,0,1,1.62,0c.63,0,1.24.1,1.86.17a12.65,12.65,0,0,1,2.5.53,17.53,17.53,0,0,1,3.08,1.27,16.6,16.6,0,0,1,2.67,1.79,15.22,15.22,0,0,1,1.82,1.77,5.26,5.26,0,0,1,.57.9c.4.73.81,1.47,1.17,2.22a14.26,14.26,0,0,1,1,3,16.61,16.61,0,0,1,.41,2.9,13.93,13.93,0,0,1-1.05,6.15,11.9,11.9,0,0,1-2.7,3.88,13.09,13.09,0,0,1-2.66,2A16.34,16.34,0,0,1,23.83,31a18.59,18.59,0,0,1-2.56.47c-.66.08-1.32.12-2,.14a11.16,11.16,0,0,1-3.67-.6,12,12,0,0,1-2.84-1.43,11.09,11.09,0,0,1-2.59-2.48A11.79,11.79,0,0,1,8.5,24a10.44,10.44,0,0,1-.59-2.6,6.38,6.38,0,0,1,0-1.85c0,.06,0,.12.05.18.08.53.15,1.07.26,1.6a12.72,12.72,0,0,0,1.55,4,10.63,10.63,0,0,0,3.12,3.25,9.62,9.62,0,0,0,2.83,1.32.29.29,0,0,0,.16,0l-.26-.11a11.82,11.82,0,0,1-3-1.62A10.59,10.59,0,0,1,10,25.3a10.69,10.69,0,0,1-1.23-2.63,10.51,10.51,0,0,1-.44-2.43c0-.16,0-.32,0-.49a10.62,10.62,0,0,1,.27-2.64,13,13,0,0,1,.87-2.71,10.26,10.26,0,0,1,2.3-3.27,11.38,11.38,0,0,1,2.91-2,12.31,12.31,0,0,1,2.13-.77,13.52,13.52,0,0,1,1.8-.3c.41,0,.82-.12,1.22-.2.09,0,.2,0,.2-.17a.54.54,0,0,0-.36-.14,11.46,11.46,0,0,0-2.41-.11,11.86,11.86,0,0,0-4.45,1.18,11.45,11.45,0,0,0-2.44,1.58,12.78,12.78,0,0,0-2.63,3,13.15,13.15,0,0,0-1.49,3.36,13.11,13.11,0,0,0,.65,8.8,13,13,0,0,0,1.76,2.9,12.55,12.55,0,0,0,2.2,2.17,12.4,12.4,0,0,0,2.27,1.43c.44.21.9.37,1.36.55a10,10,0,0,0,2.69.66,11.17,11.17,0,0,0,2.24.08,18.09,18.09,0,0,0,3.73-.72c1.08-.31,2.16-.65,3.24-1a4.75,4.75,0,0,1,.54-.14l.2,0v.06a3,3,0,0,1-.4.21c-.74.28-1.48.58-2.22.84a23.18,23.18,0,0,1-2.85.81,12.54,12.54,0,0,1-2.2.31,13.62,13.62,0,0,1-5.46-1,13.44,13.44,0,0,1-6.29-5A13.59,13.59,0,0,1,6.1,24.24a11.62,11.62,0,0,1-.57-2.6c0-.53-.12-1.06-.12-1.6a13.3,13.3,0,0,1,3.38-8.93,12.77,12.77,0,0,1,3.37-2.7A12.6,12.6,0,0,1,16.41,7a12.82,12.82,0,0,1,6.65.7c.25.1.51.19.76.3a1.74,1.74,0,0,1,.33.18c.19.13.19.26,0,.37l-.38.18c1,.64,2,1.15,3,1.79l-.15-.06a9,9,0,0,0-11.75,4.93,9.61,9.61,0,0,0-.35,1,9.09,9.09,0,0,0-.29,3.07,8.3,8.3,0,0,0,.15,1.1,9,9,0,0,0,7.37,7.11,9.11,9.11,0,0,0,7.19-1.92,8.38,8.38,0,0,0,2.41-3.35A10.11,10.11,0,0,0,32,19.57a12.32,12.32,0,0,0-.3-4.19,13.32,13.32,0,0,0-2.31-5c-.31-.41-.67-.78-1-1.16l-.32-.37L28,8.76c-.69-.53-1.34-1.12-2.08-1.59a13.8,13.8,0,0,0-3.67-1.66A13,13,0,0,0,19.74,5a15.54,15.54,0,0,0-2.46,0,14.19,14.19,0,0,0-2.76.45A15,15,0,0,0,9.76,7.73a14.26,14.26,0,0,0-2.1,1.86,14.48,14.48,0,0,0-2.21,3.05A15.58,15.58,0,0,0,3.85,17a11.41,11.41,0,0,0-.24,2.26c0,.56,0,1.13,0,1.69a15,15,0,0,0,.24,1.87,18.62,18.62,0,0,0,.51,1.95,15.43,15.43,0,0,0,3.36,5.66,16.54,16.54,0,0,0,2.32,2,15.57,15.57,0,0,0,3.9,2,17.19,17.19,0,0,0,2.63.67,14.83,14.83,0,0,0,3.46.16,20.43,20.43,0,0,0,4.45-.83,20.23,20.23,0,0,0,4.15-1.7,15.66,15.66,0,0,0,2.64-1.78c.57-.48,1.13-1,1.65-1.51a16.35,16.35,0,0,0,2.53-3.43,17.08,17.08,0,0,0,1.43-3.45,16.55,16.55,0,0,0,.57-2.8,16.23,16.23,0,0,0,.12-2.6A17.81,17.81,0,0,0,33.05,6a18.15,18.15,0,0,0-3-2.69,16.68,16.68,0,0,0-2.84-1.7A19.58,19.58,0,0,0,22.9.07L22.7,0a20,20,0,0,1,7.38,2.24,20.42,20.42,0,0,1,7.3,6.49,20.21,20.21,0,0,1,3.42,8.74A19.29,19.29,0,0,1,41,20.6h-.07l0-.24a.16.16,0,0,0,0,.23.12.12,0,0,0,0,0c.14.11.12.24.1.4s0,.53-.05.8a19.05,19.05,0,0,1-.61,3.75,20.11,20.11,0,0,1-1,2.8,21.83,21.83,0,0,1-1.76,3.26,20.8,20.8,0,0,1-2.15,2.71,20.37,20.37,0,0,1-6.88,4.84,18.47,18.47,0,0,1-2.36.85,20.7,20.7,0,0,1-6.69.79c-.67,0-1.34-.12-2-.2A18.26,18.26,0,0,1,14.44,40c-.65-.2-1.28-.46-1.92-.71a17.69,17.69,0,0,1-2.8-1.45l-1.13-.74L8.51,37h0l0,0h0Zm.58.29.1,0,.13.09.13,0a2.49,2.49,0,0,0,.94.49l.09.05a.6.6,0,0,0,.4.18l.35.13.09.05a1,1,0,0,0,.17.1l.7.26c.15,0,.31.08.46.12a3.13,3.13,0,0,0,1.07.31,3.73,3.73,0,0,0,.44.14l1,.18.12,0c.46.07.93.14,1.4.19.63.05,1.27.09,1.9.12.21,0,.43,0,.64,0a15.17,15.17,0,0,0,2.34-.18,1.9,1.9,0,0,0,.36-.09H22l1.42-.3a.47.47,0,0,0,.09-.06l.14,0,.35-.09.14,0,.13,0,.18-.05h.08v0l-.07.05-.17,0-.14,0-.13,0-.36.09-.13,0h-.16l-1.35.3-.14,0-.69.06c-.56.06-1.13.14-1.7.15-.73,0-1.46,0-2.2,0-.44,0-.88-.08-1.32-.13l-.86-.09-.18-.07-.94-.2-.3,0a.7.7,0,0,0-.17-.09l-.58-.17-.32,0a1,1,0,0,0-.17-.1l-.75-.27-.42-.13-.08,0-.36-.14a.62.62,0,0,0-.4-.18l-.09,0s0-.07-.07-.08l-.86-.41-.14-.05-.13-.09L9,37.2l-.09-.05-.13-.08h0l.13.08Zm16.08,1.38.13-.05.22-.09.14,0,.22-.09.18,0,0,0-.16.09-.22.09-.13,0-.22.09-.14.05-.13,0-.27.09h0l.26-.08Zm.71-2.23.22-.09.4-.18.18-.09a.5.5,0,0,0,.36-.18,1.3,1.3,0,0,0,.62-.31l.09,0A3.92,3.92,0,0,0,28,35.3c.28-.16.57-.32.84-.5l1.48-1.09.15-.16s-.07,0-.08,0a20.24,20.24,0,0,1-2.5,1.73l-.25.18-.09.05-.62.31-.36.18-.17.09-.4.17-.23.09-.09,0-.3.08L23.93,37l-.32.12-.36.09-.53.13-.23,0-.49.09-1.26.14A3,3,0,0,0,22,37.47l.49-.09.22,0,.54-.13.35-.09.18,0c.41-.13.83-.25,1.24-.4.23-.08.45-.2.68-.3ZM2.37,20.68V20c-.22-.16-.33-.16-.57,0h.42v.21L2,20.25a.26.26,0,0,0-.23.3c0,.13.15.2.33.18l.13,0Zm18.1,17h0Zm.94-.53v0h-.06v0ZM3.48,30.38l0,0h0l0,0Zm-.2-.3h0Z"/></g></g></g></g></g></g></svg>