<svg xmlns="http://www.w3.org/2000/svg" width="210" height="44" viewBox="0 0 210 44">
  <g id="Group_116" data-name="Group 116" transform="translate(-138 -51)">
    <text id="Nhân_Số_học" data-name="Nhân Số học" transform="translate(186 82)" fill="#202020" font-size="38" font-family="MTD Hu Kou"><tspan x="0" y="0">Nhân Số học</tspan></text>
    <g id="Layer_2" data-name="Layer 2" transform="translate(138.004 51)">
      <g id="OBJECTS" transform="translate(-0.004 0)">
        <path id="Path_11150" data-name="Path 11150" d="M8.412,36.918a.49.49,0,0,0-.089-.121c-.312-.223-.639-.425-.939-.663s-.591-.518-.884-.779a.417.417,0,0,1-.089-.12,19.725,19.725,0,0,0,12.833,4.19,18.509,18.509,0,0,0,8.936-2.595c-.056.023-.113.045-.167.068-.821.379-1.63.788-2.467,1.13a17.155,17.155,0,0,1-1.943.633,16.036,16.036,0,0,1-1.76.38c-.643.1-1.291.159-1.942.211-.464.037-.932.039-1.4.045a17.9,17.9,0,0,1-2.5-.186,16.458,16.458,0,0,1-2.246-.439A20.392,20.392,0,0,1,10.515,37.5a20.6,20.6,0,0,1-2.487-1.376,18.79,18.79,0,0,1-1.8-1.331,24.43,24.43,0,0,1-1.815-1.7,4.545,4.545,0,0,1-.414-.549,2.146,2.146,0,0,1-.252-.433l.285.285.045-.032-.248-.4-.258-.412h0l.15.092a.067.067,0,0,1,.019.02l.1.156,0,0,.092.092,0,0c.045.061.089.122.137.182l0,0,.108.094.065.065.089.1.089.1,0,.007c0,.017,0,0,0-.01l.649.639c.349.342.684.7,1.05,1.024.405.356.828.7,1.265,1.014.472.344.956.676,1.458.976.553.33,1.12.641,1.7.918.561.267,1.14.5,1.724.712a17,17,0,0,0,1.8.56c.741.178,1.493.317,2.246.429a17.335,17.335,0,0,0,3.394.134,17.072,17.072,0,0,0,2.6-.32c.178-.037.361-.065.541-.1v-.048a.84.84,0,0,0-.151-.014c-.583.054-1.165.112-1.747.166-.553.051-1.107.089-1.66.151a8.271,8.271,0,0,1-1.6.078c-.7-.057-1.4-.134-2.093-.236a14.958,14.958,0,0,1-2.8-.712,19.351,19.351,0,0,1-2.832-1.23A20.621,20.621,0,0,1,7.8,35.249a19.379,19.379,0,0,1-2.018-1.7A19.191,19.191,0,0,1,4.1,31.724a20.883,20.883,0,0,1-1.234-1.712,16.24,16.24,0,0,1-1.1-1.979c-.223-.476-.413-.968-.621-1.451A15.893,15.893,0,0,1,.4,24.231a12.992,12.992,0,0,1-.254-1.374A17.182,17.182,0,0,1,0,19.975a.081.081,0,0,1,.033-.064q0,.21,0,.419A13.119,13.119,0,0,0,.23,22.3a21.6,21.6,0,0,0,.611,2.639,17.2,17.2,0,0,0,.918,2.478q.24.513.49,1.021a.676.676,0,0,0,.113.131l.045.089.045.089a1.382,1.382,0,0,0,.356.623l.134.223.089.134.048.093.028-.023-.081-.065-.089-.134a.231.231,0,0,0-.134-.223l-.356-.623c-.015-.03-.029-.06-.045-.089l-.045-.089a.72.72,0,0,0-.041-.147,17.136,17.136,0,0,1-1.3-3.235C.87,24.661.742,24.128.608,23.6a.5.5,0,0,1,0-.223c.256.6.384,1.239.619,1.845C.995,24.163.8,23.1.668,22.031A16.958,16.958,0,0,1,.579,18.8c0,.414-.016.83,0,1.243.024.5.077.989.122,1.483A17.883,17.883,0,0,0,1.2,24.234,18.768,18.768,0,0,0,2,26.66a17.369,17.369,0,0,0,1.165,2.4A20.048,20.048,0,0,0,4.64,31.193a17.345,17.345,0,0,0,1.768,1.936A17.472,17.472,0,0,0,8.593,34.91a19.015,19.015,0,0,0,2.439,1.419c.579.279,1.184.51,1.784.745a12.725,12.725,0,0,0,2.392.682c.655.118,1.316.208,1.976.3a14.95,14.95,0,0,0,2.421.081c.466-.01.935-.042,1.4-.095.549-.063,1.095-.158,1.64-.273a17.774,17.774,0,0,1-6.365-.2c.337.041.673.095,1.011.121a3.818,3.818,0,0,0,1.036.021c-.2-.02-.395-.041-.593-.059a18.143,18.143,0,0,1-2.779-.473,19.231,19.231,0,0,1-3.164-1.113,14.881,14.881,0,0,1-2.442-1.362c-.523-.363-1.043-.733-1.537-1.135a13.332,13.332,0,0,1-1.717-1.643c-.314-.365-.643-.718-.943-1.094a14.222,14.222,0,0,1-1.425-2.147,18.766,18.766,0,0,1-1.158-2.669,16.955,16.955,0,0,1-.663-2.6c-.094-.524-.15-1.055-.21-1.584a11.107,11.107,0,0,1-.087-1.884c.034-.583.071-1.168.152-1.746.1-.7.23-1.388.367-2.079A13.2,13.2,0,0,1,2.777,14,17.516,17.516,0,0,1,3.9,11.6,17.1,17.1,0,0,1,6.069,8.571,18.034,18.034,0,0,1,8.815,6.079a16.963,16.963,0,0,1,6.946-2.948c.605-.1,1.219-.166,1.831-.212a14.2,14.2,0,0,1,1.623-.035c.621.025,1.24.1,1.858.162a13.253,13.253,0,0,1,2.494.534,17.007,17.007,0,0,1,3.08,1.272,16.28,16.28,0,0,1,2.677,1.79A15.3,15.3,0,0,1,31.141,8.41a5.062,5.062,0,0,1,.57.9c.4.736.806,1.469,1.172,2.224a14.18,14.18,0,0,1,1.045,2.975,15.929,15.929,0,0,1,.414,2.9,13.79,13.79,0,0,1-1.054,6.15,11.792,11.792,0,0,1-2.7,3.885,13.033,13.033,0,0,1-2.659,1.967,16.321,16.321,0,0,1-4.109,1.612,18.926,18.926,0,0,1-2.557.468,19.825,19.825,0,0,1-1.994.136,11.025,11.025,0,0,1-3.671-.6,12.094,12.094,0,0,1-2.834-1.425,10.827,10.827,0,0,1-2.592-2.482,11.889,11.889,0,0,1-1.686-3.145,10.714,10.714,0,0,1-.586-2.6,6.311,6.311,0,0,1,.021-1.849,1.484,1.484,0,0,1,.045.172c.089.534.152,1.073.269,1.6a12.635,12.635,0,0,0,1.542,3.961A10.664,10.664,0,0,0,12.9,28.511a9.6,9.6,0,0,0,2.832,1.317.231.231,0,0,0,.162-.006c-.089-.037-.178-.078-.267-.112a11.65,11.65,0,0,1-3.006-1.621A10.607,10.607,0,0,1,10.027,25.3,10.812,10.812,0,0,1,8.8,22.668a10.063,10.063,0,0,1-.435-2.423c-.008-.163-.029-.325-.033-.49A10.789,10.789,0,0,1,8.6,17.107,13.569,13.569,0,0,1,9.466,14.4a10.292,10.292,0,0,1,2.306-3.272,11.355,11.355,0,0,1,2.909-1.986,12.365,12.365,0,0,1,2.127-.767,11.507,11.507,0,0,1,1.8-.3c.411-.045.818-.128,1.225-.2.089-.016.2-.037.2-.175a.592.592,0,0,0-.361-.142,11.444,11.444,0,0,0-2.416-.109,11.811,11.811,0,0,0-4.442,1.184,11.688,11.688,0,0,0-2.445,1.574,12.846,12.846,0,0,0-2.627,3A13.132,13.132,0,0,0,6.255,16.57a12.569,12.569,0,0,0-.455,4.27,12.819,12.819,0,0,0,1.1,4.535,13.29,13.29,0,0,0,1.758,2.9,13.085,13.085,0,0,0,2.2,2.164,12.411,12.411,0,0,0,2.275,1.429c.441.209.9.369,1.357.555a10.245,10.245,0,0,0,2.692.663,11.841,11.841,0,0,0,2.241.077,17.984,17.984,0,0,0,3.727-.719c1.083-.312,2.158-.651,3.238-.975.178-.053.356-.1.538-.14.066-.016.134-.023.2-.033l.017.054a3.872,3.872,0,0,1-.4.21c-.74.286-1.478.579-2.226.841a23.94,23.94,0,0,1-2.845.806,12.666,12.666,0,0,1-2.2.316,13.558,13.558,0,0,1-5.46-.955,13.444,13.444,0,0,1-6.288-5.013A13.931,13.931,0,0,1,6.09,24.239a11.816,11.816,0,0,1-.573-2.6c-.051-.531-.113-1.063-.116-1.6a13.269,13.269,0,0,1,3.38-8.927,12.793,12.793,0,0,1,3.373-2.7A12.531,12.531,0,0,1,16.4,6.961,13.352,13.352,0,0,1,18.64,6.8a12.881,12.881,0,0,1,4.408.859c.256.1.513.195.766.3a1.834,1.834,0,0,1,.33.182c.19.131.184.257-.014.369-.108.061-.223.106-.376.178.985.641,2,1.154,2.956,1.788-.051-.018-.1-.034-.154-.054a9.007,9.007,0,0,0-12.093,5.963,9.051,9.051,0,0,0-.294,3.063,8.1,8.1,0,0,0,.154,1.1,9.027,9.027,0,0,0,7.367,7.116,8.624,8.624,0,0,0,2.7.029,8.849,8.849,0,0,0,4.49-1.957,8.268,8.268,0,0,0,2.409-3.342,10.327,10.327,0,0,0,.684-2.822,12.625,12.625,0,0,0-.3-4.195,13.381,13.381,0,0,0-2.315-4.987c-.305-.409-.665-.776-1-1.162-.106-.123-.211-.247-.317-.37a.653.653,0,0,0-.089-.1c-.693-.53-1.341-1.117-2.081-1.588A14.008,14.008,0,0,0,22.2,5.51a13,13,0,0,0-2.467-.478,15.355,15.355,0,0,0-2.466-.026,14.583,14.583,0,0,0-2.761.459A14.776,14.776,0,0,0,9.753,7.735a14.188,14.188,0,0,0-2.1,1.851,14.917,14.917,0,0,0-2.217,3.05,15.58,15.58,0,0,0-1.593,4.4A11.357,11.357,0,0,0,3.6,19.3c0,.563-.024,1.127.016,1.688a15.273,15.273,0,0,0,.245,1.87,17.855,17.855,0,0,0,.513,1.956,15.42,15.42,0,0,0,3.359,5.655,16.048,16.048,0,0,0,2.32,2.035,15.232,15.232,0,0,0,3.9,2.024,16.025,16.025,0,0,0,2.627.671,14.72,14.72,0,0,0,3.459.161,20.586,20.586,0,0,0,4.453-.825,20.731,20.731,0,0,0,4.149-1.706,15.721,15.721,0,0,0,2.637-1.773c.571-.483,1.133-.983,1.653-1.519a15.947,15.947,0,0,0,2.525-3.429,16.876,16.876,0,0,0,1.434-3.443,17.572,17.572,0,0,0,.571-2.808,17.058,17.058,0,0,0,.118-2.6A17.823,17.823,0,0,0,33.036,5.957a18.735,18.735,0,0,0-2.987-2.69,17.833,17.833,0,0,0-2.841-1.7,19.9,19.9,0,0,0-4.321-1.5.926.926,0,0,1-.2-.066,20.035,20.035,0,0,1,7.379,2.24,20.408,20.408,0,0,1,7.3,6.485,20.138,20.138,0,0,1,3.422,8.747,18.62,18.62,0,0,1,.2,3.128l-.065.008-.041-.236a.164.164,0,0,0-.005.277c.139.114.128.241.107.4-.036.264-.045.531-.056.8a18.815,18.815,0,0,1-.608,3.748,19.37,19.37,0,0,1-.959,2.8A20.646,20.646,0,0,1,37.6,31.656a21.465,21.465,0,0,1-2.145,2.72,20.487,20.487,0,0,1-6.885,4.836,19.448,19.448,0,0,1-2.364.851,20.6,20.6,0,0,1-6.685.783c-.672-.027-1.342-.117-2.011-.2a17.406,17.406,0,0,1-3.077-.69c-.65-.2-1.287-.452-1.919-.705A17.684,17.684,0,0,1,9.711,37.8c-.383-.24-.757-.493-1.134-.741a.437.437,0,0,1-.073-.08l0,0,.039-.033L8.5,36.938l0,0Zm.583.289.092.045.131.089.136.045a2.482,2.482,0,0,0,.935.49l.089.045a.622.622,0,0,0,.4.178l.356.134.089.045a1,1,0,0,0,.165.1c.232.093.464.184.7.264.152.051.312.082.467.122a3.279,3.279,0,0,0,1.069.312,4.027,4.027,0,0,0,.433.137c.329.066.661.118.992.175a.525.525,0,0,0,.118.048c.468.063.935.139,1.406.181.632.056,1.266.092,1.9.122.212.01.427-.037.641-.033a15.237,15.237,0,0,0,2.34-.185,3.39,3.39,0,0,0,.36-.089.623.623,0,0,0,.134,0q.712-.15,1.422-.305a.356.356,0,0,0,.093-.053l.134-.045.356-.089.136-.045.134-.045.175-.045.081-.012-.01-.029-.068.045-.175.045-.134.045-.134.045-.356.089-.134.045a.92.92,0,0,0-.153.008q-.682.143-1.359.293a.855.855,0,0,0-.138.055l-.684.061c-.567.053-1.133.137-1.7.151-.732.018-1.467-.008-2.2-.038-.443-.019-.883-.081-1.325-.126-.286-.029-.573-.061-.859-.093a1.381,1.381,0,0,0-.178-.069q-.47-.106-.943-.2c-.1-.02-.2-.027-.3-.04a1.169,1.169,0,0,0-.173-.089c-.19-.06-.381-.116-.573-.166-.106-.027-.216-.039-.324-.057a1.174,1.174,0,0,0-.168-.1c-.248-.092-.5-.18-.749-.267-.138-.047-.277-.086-.417-.129l-.089-.045-.356-.134a.579.579,0,0,0-.4-.178l-.089-.045c-.024-.027-.045-.065-.073-.08-.285-.139-.572-.275-.859-.411l-.136-.045-.131-.089L9,37.2l-.089-.045-.131-.089-.007,0h.01l.13.089Zm16.075,1.38.134-.045.22-.089.136-.045.223-.089.175-.045-.019-.045-.154.089-.223.089-.136.045-.22.089-.134.045-.136.045-.264.089h-.01l.007-.005.265-.089Zm.712-2.226L26,36.271l.4-.178L26.584,36a.49.49,0,0,0,.356-.178,1.353,1.353,0,0,0,.623-.312l.089-.045c.12-.055.246-.1.36-.166.282-.162.57-.317.835-.5.5-.353.989-.725,1.481-1.092a1.389,1.389,0,0,0,.152-.155c-.048-.014-.068,0-.084.009A20,20,0,0,1,27.9,35.294a2.788,2.788,0,0,0-.248.178l-.089.045-.623.312-.356.178-.178.089-.4.178-.223.089-.089.045c-.1.028-.2.051-.3.084q-.735.252-1.469.508c-.11.038-.219.081-.328.121l-.356.089-.534.134-.225.045-.49.089-1.265.143a3.231,3.231,0,0,0,1.262-.146l.49-.089.225-.045.534-.134.356-.089a.887.887,0,0,0,.174-.019c.414-.128.829-.252,1.238-.395.233-.082.454-.2.68-.3ZM2.356,20.682v-.7c-.212-.163-.33-.162-.564.008H2.21V20.2c-.089.018-.162.027-.233.047-.167.047-.259.171-.231.3s.157.206.334.182c.045-.006.085-.028.128-.035C2.267,20.687,2.321,20.685,2.356,20.682Zm18.1,17v-.015h-.344v.017Zm.943-.534v-.025l-.058,0v.018ZM3.474,30.377l-.02.024.015.012.02-.023Zm-.2-.3-.008.012.012,0Z" transform="translate(0.004 0)" fill="#202020"/>
      </g>
    </g>
  </g>
</svg>
