<svg xmlns="http://www.w3.org/2000/svg" width="13.298" height="11.821" viewBox="0 0 13.298 11.821">
  <path id="Icon_awesome-shopping-cart" data-name="Icon awesome-shopping-cart" d="M12.193,6.957l1.091-4.8a.554.554,0,0,0-.54-.677H3.676L3.464.443A.554.554,0,0,0,2.921,0H.554A.554.554,0,0,0,0,.554V.924a.554.554,0,0,0,.554.554H2.168L3.789,9.407a1.293,1.293,0,1,0,1.548.2h4.84a1.293,1.293,0,1,0,1.468-.24l.127-.56a.554.554,0,0,0-.54-.677h-6.2l-.151-.739h6.768A.554.554,0,0,0,12.193,6.957Z" fill="#fff"/>
</svg>
